<mxfile host="Electron" agent="Mozilla/5.0 (Macintosh; Intel Mac OS X 10_15_7) AppleWebKit/537.36 (KHTML, like Gecko) draw.io/24.7.17 Chrome/128.0.6613.36 Electron/32.0.1 Safari/537.36" version="24.7.17">
  <diagram id="C5RBs43oDa-KdzZeNtuy" name="Page-1">
    <mxGraphModel dx="3516" dy="3202" grid="1" gridSize="10" guides="1" tooltips="1" connect="1" arrows="1" fold="1" page="1" pageScale="1" pageWidth="827" pageHeight="1169" math="0" shadow="0">
      <root>
        <mxCell id="WIyWlLk6GJQsqaUBKTNV-0" />
        <mxCell id="WIyWlLk6GJQsqaUBKTNV-1" parent="WIyWlLk6GJQsqaUBKTNV-0" />
        <mxCell id="Y-bC4dFZqXMmufeN_1P_-12" style="edgeStyle=orthogonalEdgeStyle;rounded=0;orthogonalLoop=1;jettySize=auto;html=1;exitX=1;exitY=0.5;exitDx=0;exitDy=0;" edge="1" parent="WIyWlLk6GJQsqaUBKTNV-1" source="Y-bC4dFZqXMmufeN_1P_-0" target="Y-bC4dFZqXMmufeN_1P_-7">
          <mxGeometry relative="1" as="geometry" />
        </mxCell>
        <mxCell id="Y-bC4dFZqXMmufeN_1P_-13" style="edgeStyle=orthogonalEdgeStyle;rounded=0;orthogonalLoop=1;jettySize=auto;html=1;exitX=1;exitY=0.5;exitDx=0;exitDy=0;entryX=0;entryY=0.5;entryDx=0;entryDy=0;" edge="1" parent="WIyWlLk6GJQsqaUBKTNV-1" source="Y-bC4dFZqXMmufeN_1P_-0" target="Y-bC4dFZqXMmufeN_1P_-6">
          <mxGeometry relative="1" as="geometry" />
        </mxCell>
        <mxCell id="Y-bC4dFZqXMmufeN_1P_-14" style="edgeStyle=orthogonalEdgeStyle;rounded=0;orthogonalLoop=1;jettySize=auto;html=1;exitX=1;exitY=0.5;exitDx=0;exitDy=0;entryX=0;entryY=0.5;entryDx=0;entryDy=0;" edge="1" parent="WIyWlLk6GJQsqaUBKTNV-1" source="Y-bC4dFZqXMmufeN_1P_-0" target="Y-bC4dFZqXMmufeN_1P_-5">
          <mxGeometry relative="1" as="geometry" />
        </mxCell>
        <mxCell id="Y-bC4dFZqXMmufeN_1P_-15" style="edgeStyle=orthogonalEdgeStyle;rounded=0;orthogonalLoop=1;jettySize=auto;html=1;exitX=1;exitY=0.5;exitDx=0;exitDy=0;entryX=0;entryY=0.5;entryDx=0;entryDy=0;" edge="1" parent="WIyWlLk6GJQsqaUBKTNV-1" source="Y-bC4dFZqXMmufeN_1P_-0" target="Y-bC4dFZqXMmufeN_1P_-10">
          <mxGeometry relative="1" as="geometry" />
        </mxCell>
        <mxCell id="Y-bC4dFZqXMmufeN_1P_-16" style="edgeStyle=orthogonalEdgeStyle;rounded=0;orthogonalLoop=1;jettySize=auto;html=1;exitX=1;exitY=0.5;exitDx=0;exitDy=0;entryX=0;entryY=0.5;entryDx=0;entryDy=0;" edge="1" parent="WIyWlLk6GJQsqaUBKTNV-1" source="Y-bC4dFZqXMmufeN_1P_-0" target="Y-bC4dFZqXMmufeN_1P_-9">
          <mxGeometry relative="1" as="geometry" />
        </mxCell>
        <mxCell id="Y-bC4dFZqXMmufeN_1P_-17" style="edgeStyle=orthogonalEdgeStyle;rounded=0;orthogonalLoop=1;jettySize=auto;html=1;exitX=1;exitY=0.5;exitDx=0;exitDy=0;entryX=0;entryY=0.5;entryDx=0;entryDy=0;" edge="1" parent="WIyWlLk6GJQsqaUBKTNV-1" source="Y-bC4dFZqXMmufeN_1P_-0" target="Y-bC4dFZqXMmufeN_1P_-8">
          <mxGeometry relative="1" as="geometry" />
        </mxCell>
        <mxCell id="Y-bC4dFZqXMmufeN_1P_-18" style="edgeStyle=orthogonalEdgeStyle;rounded=0;orthogonalLoop=1;jettySize=auto;html=1;exitX=1;exitY=0.5;exitDx=0;exitDy=0;entryX=0;entryY=0.5;entryDx=0;entryDy=0;" edge="1" parent="WIyWlLk6GJQsqaUBKTNV-1" source="Y-bC4dFZqXMmufeN_1P_-0" target="Y-bC4dFZqXMmufeN_1P_-11">
          <mxGeometry relative="1" as="geometry" />
        </mxCell>
        <mxCell id="Y-bC4dFZqXMmufeN_1P_-0" value="LSMV" style="rounded=0;whiteSpace=wrap;html=1;" vertex="1" parent="WIyWlLk6GJQsqaUBKTNV-1">
          <mxGeometry x="20" y="180" width="120" height="60" as="geometry" />
        </mxCell>
        <mxCell id="Y-bC4dFZqXMmufeN_1P_-5" value="HEP Complaint FDA TRAK Dashboard" style="rounded=0;whiteSpace=wrap;html=1;" vertex="1" parent="WIyWlLk6GJQsqaUBKTNV-1">
          <mxGeometry x="580" y="320" width="120" height="60" as="geometry" />
        </mxCell>
        <mxCell id="Y-bC4dFZqXMmufeN_1P_-6" value="PowerBI" style="rounded=0;whiteSpace=wrap;html=1;" vertex="1" parent="WIyWlLk6GJQsqaUBKTNV-1">
          <mxGeometry x="580" y="250" width="120" height="60" as="geometry" />
        </mxCell>
        <mxCell id="Y-bC4dFZqXMmufeN_1P_-7" value="EOB" style="rounded=0;whiteSpace=wrap;html=1;" vertex="1" parent="WIyWlLk6GJQsqaUBKTNV-1">
          <mxGeometry x="580" y="180" width="120" height="60" as="geometry" />
        </mxCell>
        <mxCell id="Y-bC4dFZqXMmufeN_1P_-8" value="OpenFDA" style="rounded=0;whiteSpace=wrap;html=1;" vertex="1" parent="WIyWlLk6GJQsqaUBKTNV-1">
          <mxGeometry x="580" y="530" width="120" height="60" as="geometry" />
        </mxCell>
        <mxCell id="Y-bC4dFZqXMmufeN_1P_-9" value="WILEE" style="rounded=0;whiteSpace=wrap;html=1;" vertex="1" parent="WIyWlLk6GJQsqaUBKTNV-1">
          <mxGeometry x="580" y="460" width="120" height="60" as="geometry" />
        </mxCell>
        <mxCell id="Y-bC4dFZqXMmufeN_1P_-10" value="AE finder" style="rounded=0;whiteSpace=wrap;html=1;" vertex="1" parent="WIyWlLk6GJQsqaUBKTNV-1">
          <mxGeometry x="580" y="390" width="120" height="60" as="geometry" />
        </mxCell>
        <mxCell id="Y-bC4dFZqXMmufeN_1P_-11" value="HFCS Public" style="rounded=0;whiteSpace=wrap;html=1;" vertex="1" parent="WIyWlLk6GJQsqaUBKTNV-1">
          <mxGeometry x="580" y="600" width="120" height="60" as="geometry" />
        </mxCell>
        <mxCell id="Y-bC4dFZqXMmufeN_1P_-25" value="" style="shape=image;verticalLabelPosition=bottom;labelBackgroundColor=default;verticalAlign=top;aspect=fixed;imageAspect=0;image=data:image/png,iVBORw0KGgoAAAANSUhEUgAAAssAAAILCAYAAAAe4NFvAAABYmlDQ1BJQ0MgUHJvZmlsZQAAKJF1kD9IQlEYxY9mCNUgUUtFvYaGwKL8ExQt6iBBoWjRn+35/BeoXd57Ec01BA0tEa0tTRFtLg0uEbQaCU0NLc6BS8nrXK3Uonv5OD8O37n34wPsLlWInANAvmDqsXBQ2djcUpxVODGKQYyjX9UMEYhGl9mCb+08tSfYpJan5Fva8EpkdiGUfilfHDzcjh3/7e84PcmUoVE/WHOa0E3A5iNH90wh+ZA8oHMo8rnkTJOvJCeaXGr0rMZC5EeyS8uqSfIr2Z1o8zNtnM/tal8zyOn7UoW1OHWINYIIktiHwZuiKghjHl7EwfQ/OV8jF8IOBBM6tpFBFiazAToCOb6kYAkFaJiGm+zBDMsv9/17jy3vlH8FT/hVvOUt3gE3Va7O3vImrjnKEXBfEaqu/mzXVnMYaa+nyb1FoPvMst7WAeckUK9Y1nvRsuqXQNczUKp9AosgZWJa6D2kAAAAVmVYSWZNTQAqAAAACAABh2kABAAAAAEAAAAaAAAAAAADkoYABwAAABIAAABEoAIABAAAAAEAAALLoAMABAAAAAEAAAILAAAAAEFTQ0lJAAAAU2NyZWVuc2hvdJA5K3MAAAHWaVRYdFhNTDpjb20uYWRvYmUueG1wAAAAAAA8eDp4bXBtZXRhIHhtbG5zOng9ImFkb2JlOm5zOm1ldGEvIiB4OnhtcHRrPSJYTVAgQ29yZSA2LjAuMCI+CiAgIDxyZGY6UkRGIHhtbG5zOnJkZj0iaHR0cDovL3d3dy53My5vcmcvMTk5OS8wMi8yMi1yZGYtc3ludGF4LW5zIyI+CiAgICAgIDxyZGY6RGVzY3JpcHRpb24gcmRmOmFib3V0PSIiCiAgICAgICAgICAgIHhtbG5zOmV4aWY9Imh0dHA6Ly9ucy5hZG9iZS5jb20vZXhpZi8xLjAvIj4KICAgICAgICAgPGV4aWY6UGl4ZWxZRGltZW5zaW9uPjUyMzwvZXhpZjpQaXhlbFlEaW1lbnNpb24+CiAgICAgICAgIDxleGlmOlBpeGVsWERpbWVuc2lvbj43MTU8L2V4aWY6UGl4ZWxYRGltZW5zaW9uPgogICAgICAgICA8ZXhpZjpVc2VyQ29tbWVudD5TY3JlZW5zaG90PC9leGlmOlVzZXJDb21tZW50PgogICAgICA8L3JkZjpEZXNjcmlwdGlvbj4KICAgPC9yZGY6UkRGPgo8L3g6eG1wbWV0YT4KTare2AAAQABJREFUeAHt3QeYXFXdP/CzEKr0UKQTeg2vID0UqdJBFBCk+KKhvYAPikqkhBpBqYIUpSNBQBGV3pGOBCnCS+8dpPfA/vM7vnf/W7JmMzuzmXvnc59nMjO3nHvO5+xuvnv23Dtt7eOWZCFAgAABAgQIECBAoIfAZD3WWEGAAAECBAgQIECAQBYQln0hECBAgAABAgQIEOhFQFjuBcZqAgQIECBAgAABAsKyrwECBAgQIECAAAECvQgIy73AWE2AAAECBAgQIEBAWPY1QIAAAQIECBAgQKAXAWG5FxirCRAgQIAAAQIECAjLvgYIECBAgAABAgQI9CIgLPcCYzUBAgQIECBAgAABYdnXAAECBAgQIECAAIFeBITlXmCsJkCAAAECBAgQICAs+xogQIAAAQIECBAg0IuAsNwLjNUECBAgQIAAAQIEhGVfAwQIECBAgAABAgR6ERCWe4GxmgABAgQIECBAgICw7GuAAAECBAgQIECAQC8CwnIvMFYTIECAAAECBAgQEJZ9DRAgQIAAAQIECBDoRUBY7gXGagIECBAgQIAAAQLCsq8BAgQIECBAgAABAr0ICMu9wFhNgAABAgQIECBAQFj2NUCAAAECBAgQIECgFwFhuRcYqwkQIECAAAECBAgIy74GCBAgQIAAAQIECPQiICz3AmM1AQIECBAgQIAAAWHZ1wABAgQIECBAgACBXgSE5V5grCZAgAABAgQIECAwqBEEbW1tjShWmU0k0N7e3kS1URUCBAgQINB/Afml/4bNXkIt+aUhYTmgaqlMswOr378F/DDxlUCAAAECVRWQX6rasynVml9Mw6ju14SWESBAgAABAgQI9FNAWO4noMMJECBAgAABAgSqKyAsV7dvtYwAAQIECBAgQKCfAsJyPwEdToAAAQIECBAgUF0BYbm6fatlBAgQIECAAAEC/RQQlvsJ6HACBAgQIECAAIHqCgjL1e1bLSNAgAABAgQIEOingLDcT0CHEyBAgAABAgQIVFdAWK5u32oZAQIECBAgQIBAPwWE5X4COpwAAQIECBAgQKC6AsJydftWywgQIECAAAECBPopICz3E9DhBAgQIECAAAEC1RUQlqvbt1pGgAABAgQIECDQTwFhuZ+ADidAgAABAgQIEKiugLBc3b7VMgIECBAgQIAAgX4KCMv9BHQ4AQIECBAgQIBAdQWE5er2rZYRIECAAAECBAj0U0BY7iegwwkQIECAAAECBKorICxXt2+1jAABAgQIECBAoJ8CwnI/AR1OgAABAgQIECBQXQFhubp9q2UECBAgQIAAAQL9FBCW+wnocAIECBAgQIAAgeoKCMt97NuPPvoovfjii33c224ECBAgQIAAgeYU+OKLL9JTTz2VXnrppeasYJPVSlge1yHnnXdemnfeecfbNc8//3zafvvt07TTTpvmmWeetNhii6WjjjqqY98ZZpghtbW1pXfffbdjXbyIfWL9r3/963ThhRfm12+++WaXfU444YS8PoK4hQABAgQIECDQH4Fhw4blXBH5o/Njr732ysW2t7enUaNGpZlmmikttNBCae65506RY0477bSO0/7mN7/pcmyUs8Yaa6SHH364Y59WeyEsj+vx+OL59NNPx9v3hx12WBo7dmx65ZVX0ttvv50OPPDA9NOf/jRdddVVXfa/+uqru7y/4IIL8vsoe6ONNsqvL7/88i77XHzxxWnnnXdO00wzTZf13hAgQIAAAQL1FzjmmGPSe++9V/+Cm6jE/fffP48ax8hx8Rg5cmSu4UEHHZTDcmSUyD0ff/xxOuWUU9Juu+2Wjj/++LxP5JZFF100vfXWW+lf//pXeuyxx1IM9v3gBz9oolYObFWE5Ql4X3bZZWmppZZKc8wxR5pxxhnTd77znXTyySfn38SKQ1deeeUUwbdYnnjiifTAAw+koUOH5lXxW9t2222XLrroomKXPKXjtttuy6PWHSu9IECAAAECBBomMGLEiDR48OB0yCGHVDY0zzrrrGnIkCFdHtHmCL+HH354OvbYY9Mmm2ySpphiijTVVFPlHBIDgRGkIyjHMmjQoDz6PPPMM6dFFlkkrbvuupX16ssX26C+7NTK+2y++ebp4IMPTo8++mjaYIMNUvyJY4899uhC8s1vfjP96Ec/yl9I008/fYqAvfXWW3eZ4xxhOb4444s1vvj+/Oc/p9h3rbXW6lKWNwQIECBAgEBjBI4++ug8QhojrTEdIUZh99133/z/cWPOOPCl3nPPPWn06NFdTrz++uunxx9/PK+LLNN9ie3xl/TXX389b3rjjTfSWWedlcPzs88+m0488cR0/vnndz+sZd4bWZ5AV8cXyEknnZSnYey00055jk98UXWef7zkkkumeBRTM37/+9+nCNCdl/itLMJxMRUjRpm/973v5d/eOu/nNQECBAgQINAYgX322Sf/lThK/+STT1KE5tlmm61SI8033HBD+uUvf9nlEVNJi9wS85W7L5NN9u84+MEHH+RNr732Wv6L+SWXXJL++te/5nX//Oc/ux/WOu/HDbnXfRmnV/cyG1ngOeec0z777LP3OMW4ucrt4+brdKwf90XUPm6eT/u40Ns+7jfRvD5eX3HFFe3j/rTRPm40uX3c/KD4G0b7uPnN7auttlr7uKDdcfy4Een2cSPV7eO+aPM+d911V8e2Mr2I9nkw8DXga8DXgK+BKn0NjBsIy/+3len/4+51jdwxbl5299X5/ZgxY3L7rr322h7bx92UIG8b9wtE+7iL/drHDQB22efWW2/N2yO/lHmJr9daFtMwxsn1tsTc48UXXzw9+eSTacEFF8x3xPj2t7+drr/++o4/ZxTHxnSNAw44IM9v3nTTTTt+cy22x3Mcu/rqq+epHFHeCius0HlzqV6P+2IrVX1VlkBZBeJKdN9vZe099W5GgbgGKUZOiyXm7RbTMeIao6ouMfc4lmuuuSbPQe7czuuuuy5PC51yyik7r+54HX89jyUu9gu/VluE5f/r8bh9W1yU13mZb7750rgR53wHjLhaNL6J4tYpN954Y9pxxx0775qWXnrpfPVozG8+99xzu2wr3qy66qq5vP322y//ySf+E7QQIECAAAECAyMQt2yNO1zF0jkkxzTJqiwvvPBCjzwT+WWBBRbI005i6kncgGCzzTbLFqeeemoaN9qcbrrppg6CuEtGXKsVS8xZjosCw2illVbq2KeVXgjL/9fbcSuZZZddtkvfx90q4mK9uM9y3Amj+Gbaaqut8u3juuw87k2MHMcVtsWt4mJ750Acc4JinvKRRx6Zttlmm+6He0+AAAECBAg0UCBGkCMsR2Cs2oV9Bdtxxx2X4tF5idwS849/9rOf5dU77LBDx+YYFIzb36655pp5XeSWuOVc/GW9WMZN78h/Ve9t5LnYr6rPbTF3o96Nq9qfDeMb65lnnskXAyyxxBKpmAhfb7eylFe1/i2Lu3q2poDvt9bsd61ujEDcZ3n48OEdg1/dz9Iq329xj+WYUhEjzvFX9FZZau1fYblVvkLq2M5av9jqWAVFEWgZAd9vLdPVGtoEAr7fmqATGliFWvvXreMa2CmKJkCAAAECBAgQKLeAsFzu/lN7AgQIECBAgACBBgoIyw3EVTQBAgQIECBAgEC5BYTlcvef2hMgQIAAAQIECDRQQFhuIK6iCRAgQIAAAQIEyi0gLJe7/9SeAAECBAgQIECggQLCcgNxFU2AAAECBAgQIFBuAWG53P2n9gQIECBAgAABAg0UEJYbiKtoAgQIECBAgACBcgsIy+XuP7UnQIAAAQIECBBooICw3EBcRRMgQIAAAQIECJRbQFgud/+pPQECBAgQIECAQAMFhOUG4iqaAAECBAgQIECg3ALCcrn7T+0JECBAgAABAgQaKCAsNxBX0QQIECBAgAABAuUWEJbL3X9qT4AAAQIECBAg0EABYbmBuIomQIAAAQIECBAot4CwXO7+U3sCBAgQIECAAIEGCgjLDcRVNAECBAgQIECAQLkFhOVy95/aEyBAgAABAgQINFBAWG4grqIJECBAgAABAgTKLSAsl7v/1J4AAQIECBAgQKCBAsJyA3EVTYAAAQIECBAgUG4BYbnc/af2BAgQIECAAAECDRQY1Kiy29raGlW0cgkQIECAAAECDRGQXxrCWupCGxKW29vbS42i8gQIECBAgEDrCcgvrdfnfWmxaRh9UbIPAQIECBAgQIBASwoIyy3Z7RpNgAABAgQIECDQFwFhuS9K9iFAgAABAgQIEGhJAWG5JbtdowkQIECAAAECBPoiICz3Rck+BAgQIECAAAECLSkgLLdkt2s0AQIECBAgQIBAXwSE5b4o2YcAAQIECBAgQKAlBYTllux2jSZAgAABAgQIEOiLQEM+lKQvJ7YPAQIECBAgQKCZBHx6XzP1RmPqUssHzwjLjekLpRIgQIAAAQIlFKglTJWwmS1Z5Vp/GTINoyW/XDSaAAECBAgQIECgLwLCcl+U7EOAAAECBAgQINCSAsJyS3a7RhMgQIAAAQIECPRFQFjui5J9CBAgQIAAAQIEWlJAWG7JbtdoAgQIECBAgACBvggIy31Rsg8BAgQIECBAgEBLCgjLLdntGk2AAAECBAgQINAXAWG5L0r2IUCAAAECBAgQaEkBYbklu12jCRAgQIAAAQIE+iIgLPdFyT4ECBAgQIAAAQItKSAst2S3azQBAgQIECBAgEBfBITlvijZhwABAgQIECBAoCUFhOWW7HaNJkCAAAECBAgQ6IuAsNwXJfsQIECAAAECBAi0pICw3JLdrtEECBAgQIAAAQJ9ERCW+6JkHwIECBAgQIAAgZYUEJZbsts1mgABAgQIECBAoC8CwnJflOxDgAABAgQIECDQkgLCckt2u0YTIECAAAECBAj0RUBY7ouSfQgQIECAAAECBFpSQFhuyW7XaAIECBAgQIAAgb4ICMt9UbIPAQIECBAgQIBASwoIyy3Z7RpNgAABAgQIECDQFwFhuS9K9iFAgAABAgQITCKBYcOGpba2to7HvPPOmw488MD0wQcfDGiNZphhho46RH2iHoceemj64osvcj2GDx+edtxxxwGt00CcTFgeCGXnIECAAAECBCa5wDHHHJPee++9SV6PWiqw//77p1dffTW98sor6Xe/+106/PDD04UXXlhLUf065rzzzktvvfVWrseIESPSwQcfnO64445cZoTm9vb2fpXfjAcLy83YK+pEgAABAgQI1F0gwt3gwYPTIYccUrrQPP3006fZZ589zTHHHGmNNdZIW221Vbryyiuz0SOPPJK+9rWvpRj5XXHFFdNtt92W12+xxRbpsssuy69Hjx6dVllllfTxxx/n97vuumu69NJL8+uzzz47LbvssmmhhRbK4Xfs2LHp888/z2WdddZZaamllkqPP/543ne66aZLM800U67HlltumdcN9Ah3PukA/iMsDyC2UxEgQIAAAQKTTuDoo49On332WRo5cmSabbbZShWaP/300/Thhx/mkH/zzTena665Jm2wwQbpk08+Seuvv36aZppp0hVXXJHXbbjhhum1117LvxhcddVVGfyvf/1ruvPOO9OYMWPyMaeffnpaZJFFcuD+7ne/m773ve+l0047LZ155pnpyCOPzCPE99xzT9pnn33SNttsk4N6FBTnjQB98sknp+233z4tuuiiac0115x0nToAZ24bN1xevfHyAYBzCgIECAyEQMwL9GN6IKSdo1UEYlT0nXfe6WjuVFNNlWKKw7777ptHZpvx+y3mLBejxUXFd99993TEEUeku+66K0U4fvfdd1OMPscSI8wRfOPnR0yTePTRR/NI8DzzzJO22267tNpqq6XNN988T6WI5xix/u1vf5uPjbB81FFHpX/+859piimmyMF45513ztui3CFDhqS55547xejz/fffn6accsp07bXXpsUXXzwH7gjvMVWjGZdaf54OasbGqBMBAgQI/H+B+AFvIUCgMQIR7mKk+fbbb2/MCepUaoT5PfbYI5cW4bYIxs8++2xacsklO97HDkOHDs3zm7fddtv02GOPpRghjuV//ud/8rSM+IVg0003zWE6gvRf/vKXdMYZZ+R94p+i7Hi90korxVPHElNYYnpHLBGYN9tssxSj1Mcee2zHPlV7ISxXrUe1hwCBygk040hX5ZA1qGUEYs5vTFEolu4jy8X6ZnueddZZ85zi7vVaYokl0vPPP5/nGE8++eT5L1EPPPBAiiknX/7yl3Nw/uUvf5nWXXfdFCPUMa0ipnTstNNOuahZZpkl/eQnP0kHHXRQfl9cvFec5z/9sj5o0KC0zDLLpL///e/F7pV8Nme5kt2qUQQIECBAgEB3gRNOOCGPhsb6CMkxovz666/nqQqdR1O7H9fM7+OivVhiGkWM9BZzlONCv1g23njjdNFFF6XVV189z1GOuc1xYeBaa62Vt0eIjgv9Xn755fT++++nPffcM0W47m154YUX8rSOmKYxatSodMopp+TR5d72r8J6I8tV6EVtIECAAAECBCYoEHOTI1BGSI5pDWUNyJ0bGvOKI7Tutttuab/99ssXAMaUihj1jWWdddbJ21ddddX8Pi4KjKAbI+yx/PCHP8xTUBZeeOH8foUVVkiXXHJJfh3/dB9Z3muvvTq2xRzomBoS86djmWyyao7BusCvo8u9IECAQPMJ1HpBSvO1RI0ITHqBuM9yfHBGbyG5zN9vb7/9dopR3wUXXDBNO+20E4UdU71i7nPM3467W3QPyBNVWBPvXGv/CstN3KmqRoAAgVp/uJMjQGDiBXy/TbxZmY6otX+rOV5epp5TVwIECBAgQIAAgaYVEJabtmtUjAABAgQIECBAYFILCMuTugecnwABAgQIECBAoGkFhOWm7RoVI0CAAAECBAgQmNQCwvKk7gHnJ0CAAAECBAgQaFoBYblpu0bFCBAgQIAAAQIEJrWAsDype8D5CRAgQIAAAQIEmlZAWG7arlExAgQIECBAgACBSS0gLE/qHnB+AgQIECBAgACBphUQlpu2a1SMAAECBAgQIEBgUgsIy5O6B5yfAAECBAgQIECgaQWE5abtGhUjQIAAAQIECBCY1ALC8qTuAecnQIAAAQIECBBoWgFhuWm7RsUIECBAgAABAgQmtYCwPKl7wPkJECBAgAABAgSaVkBYbtquUTECBAgQIECAAIFJLSAsT+oecH4CBAgQIECAAIGmFRCWm7ZrVIwAAQIECBAgQGBSCwjLk7oHnJ8AAQIECBAgQKBpBYTlpu0aFSNAgAABAgQIEJjUAsLypO4B5ydAgAABAgQIEGhaAWG5abtGxQgQIECAAAECBCa1gLA8qXvA+QkQIECAAAECBJpWQFhu2q5RMQIECBAgQIAAgUktMGhSV8D5CRAgQIAAAQLNItDW1tYsVVGPJhEQlpukI1SDAAECBAgQmLQC7e3tk7YCzt6UAqZhNGW3qBQBAgQIECBAgEAzCAjLzdAL6kCAAAECBAgQINCUAsJyU3aLShEgQIAAAQIECDSDgLDcDL2gDgQIECBAgAABAk0pICw3ZbeoFAECBAgQIECAQDMICMvN0AvqQIAAAQIECBAg0JQCwnJTdotKESBAgAABAgQINIOAsNwMvaAOBAgQIECAAAECTSngQ0masltUigABAgQIEBhoAZ/eN9DiA3++Wj54Rlge+H5yRgIECBAgQKBJBWoJU03aFNXqJlDrL0OmYXSD9JYAAQIECBAgQIBAISAsFxKeCRAgQIAAAQIECHQTEJa7gXhLgAABAgQIECBAoBAQlgsJzwQIECBAgAABAgS6CQjL3UC8JUCAAAECBAgQIFAICMuFhGcCBAgQIECAAAEC3QSE5W4g3hIgQIAAAQIECBAoBITlQsIzAQIECBAgQIAAgW4CwnI3EG8JECBAgAABAgQIFALCciHhmQABAgQIECBAgEA3AWG5G4i3BAgQIECAAAECBAoBYbmQ8EyAAAECBAgQIECgm4Cw3A3EWwIECBAgQIAAAQKFgLBcSHgmQIAAAQIECBAg0E1AWO4G4i0BAgQIECBAgACBQkBYLiQ8EyBAgAABAgSaSGDs2LHp8ccfTy+88EL64osvmqhmrVUVYbm1+ltrCRAgQIAAgYkU2GOPPdK3v/3tHke1tbWlyy67LH300UcpXo/vcfHFF493+4orrph+85vf9CgzVkRIPuyww9IUU0yRFl100TTvvPOmRRZZJN1+++3j3b+eK+Pc0Y5HH330PxY7bNiwdPbZZ//HfT755JN05plnpg8//LDHfiNHjhyv14gRI9Jrr73WY1t4jR49ukc5f/nLX/K+xx13XI9t9VohLNdLUjkECBAgQIBAJQXa29t7HdmNbfGI5dJLL01PPfVUl8dGG23Usf3Pf/5zevXVV/NI8c4775yGDx+e/vd//7eH2RFHHJFOOumkdMstt+TzvvzyyynK+frXv56DZI8DGrCiaFNvRf/qV79KG2ywQW+b8/oPPvgg7bLLLuntt9/usV+Uv/LKK3exCrv99tuvw+v666/PXnfccUdafvnl03bbbdcjoJ933nlp+umn77G+xwn7sUJY7geeQwkQIECAAAEChcDcc8+dhgwZ0uXxpS99qdicZpllljT77LOn2G+33XbLIS8CYeclAmaMuv785z9Pq6++eh41/fKXv5yOOuqo9L3vfS+98sorefcI3ksttVSaYYYZ0hZbbJEDeGyIfY488si0zjrrpMUWWyyHyEMOOSSPTsdo8JNPPpmP33777dPRRx+dYt0cc8yRjxlfQI6R8zXWWCPvs8MOO6QXX3wxH//b3/42jRkzJn388ccpRn3POOOMXJ+FFlooxbZYttpqq/y84YYbptdffz2/7vxPhNzuXjPPPHPHLoMHD85eEapPOeWUdMABB6QDDzywY/ubb76ZYuT+3HPPTQ888EB6+OGHO7bV84WwXE9NZREgQIAAAQKVFHjooYdyYI3QWjy6N/TKK6/MUwViukA8Lrzwwi67xHSNmJLwxhtv5HD53nvvpbXXXrvLPk8//XR+H0G58zLttNOmY489Ng0dOjSHws033zytv/766dprr83TNrbddts8Ihsj1T/72c/yKGxs/+53v5sikJ988snp008/Tb/85S9zsXfeeWc6/PDD0/7775/LjWPuu+++zqfM+8fo9zbbbJMuv/zyPMpbHH///ffnUe6YS33PPffk4B1TIb72ta+l73//+zlER9mxRPifccYZu5Qdb5599tn/6NX9gCg75m+/++67edMf//jH7BG/LCy33HI5OHc/ph7vB9WjEGUQIECAAAECBKos8Pzzz6ebb775PzbxnHPOSTPNNFPHPpNPPnmKEFss6623XvEyj5iOGjUqLbHEEh3r4sU777yT38eoa2/L+eefn6cwFPN0I8BGOVHHWA4++OA8/SGmNcR0jgirEcrjfYwUF0uM1G688cb57a233pquuOKKHD6L7e+//34e0f3GN76RR4ZjpDqC8fiWU089NQflVVZZJf8i8Mwzz6SvfvWredeVVlopTTnllD0Oe+yxx3Ldig2DBg3q4lWsL56LUecYzY4R9ZgPHdNZYgnnE088MR100EF5ND6vrNM/wnKdIBVDgAABAgQIVFcgphL8/ve/79LAuBCu8xIjySussELnVV1ex2hzsX2++ebLF/B12WHcm/nnnz+vilC6ySabdNkcFwRG8IypFBFKi6U4ppjqsMACC+RNU089dX5eeuml8/NUU02VPvvss/w6/ll88cU7Xi+44IJ5lPqnP/1px7qYQhKjzRFIYxR8nnnm6ahfx07/9yIuQoylCPlxcd+Elvjl4ZprrpnQbh3bn3vuufxLRkxlibuExOh48QtBtD3qePfdd2ejjoPq8MI0jDogKoIAAQIECBAgMCGBCJQxpzcecaeL8S1zzTXXeOcyR0COKRExnWGZZZZJERyL5Yknnsgvi1AcI7Sdl+6hvthWTGeI9//4xz9SMXJbbI+R5piqceONN+apHsW0imJ75+cYRW/08rvf/a7jl4T4xSOmXsRz/BLxpz/9Kb/v/gtNPerUVbMeJSqDAAECBAgQINCCAnG7tRi97bxE+I35xn1dJptssjwnOm5Xt+qqq+a7YMTdMOLiupinHKPIcWeMuDgvpk7EBXoXXHBB2nTTTXuce0LnPP300/NFeDHPOW7BVsxHLo6L+dNLLrlkWnbZZVNcTBcX8Y1vOkWxf/fnaEssb731VgqHiV1i1DhGx2M6SFw0GBfz3XvvvfkOIRGQYxS885zvHXfcMV8AGDbdf2GY2HN33t/IcmcNrwkQIECAAIHKChxzzDH5T/UT28DeRmajnNhWbI9AG8Gy8yNGOovtfT1vXCD34x//OG299dZpuummy/dYjukNMf84lq985St5rnFcBFjM3Y35x70tnc9fBNjYN+ZHR5CPEdqYuxwXAxZLHBPzgGN+cNzFY+GFF84XFMbUhwjZsXQutziueI5tMX97tdVWSzHi/dJLLxWb8vOEjo2dYq50TBWJuc8xHztGuqOuUYe40G/LLbfsUmb8whBTMSY0t7zLQX140zbuNiH/vjlgH3a2CwECBAgMrED8h+LH9MCaO1t1BWLUN76f4s4P++67b8f82qLFzfb9FnfOiNHdGJXtPkUi6hwBNMJhTOuY2JHUOCbCd9z2LUxmnXXWgqHLc2yLKSALjJsHHeeIgB2jy9NMM02X/f7TmxhZHl/9/9MxjdhWa/8aWW5EbyiTAAECBAgQaDqB+PN8XOA2ctzdIWabbbYU9x+OsNmsS4z6xr2UewuaEaLjDhUTG5Q7tzfuZdxbUI79ImDGqHJxjpgzPTFBOcrorf6xrQyLkeUy9JI6EiDQsgK1joS0LJiGE5iAQEwNKG7PFrvGaHNcuBYjzTGloVX+knPaaaflDy6JINwqS60/T4XlVvkK0U4CBEopED/cLQQINF4gPsAjbmPWKmG58aLNd4Zaw7K7YTRfX6oRAQIEugj4z7sLhzcE+iUQH+382muvdZTRfWS5Y4MXBP5PQFj2pUCAAAECBAi0hMAJJ5yQ7xccje0ckosP0mgJhBoa+fnnn+ejxncv5ZgD3ts9o2s41QQPGTt2bMf86QnuXKcdXOBXJ0jFECBAgAABAs0tEHOT44K+uMAvPvEtPha6v0E57ioRf94f3yNucRbTO7pviztQXHfddT2w4pZzMW+686ffxZ0o4vjOt17785//nNcdeuihPcqICwI7ny8uAIz2dv7kvh4HTWBFnGfXXXftsVfcvi3ujBG3lxuoJW5jd//99w/U6fJ5hOUB5XYyAgQIECBAYFIJHHbYYfnDNeoRkos23H777enFF1/Mj1gXH5ZRvI97AseobFw8+Oqrr+ZHfNDGkCFDUnzU80cffVQUkx544IH8iDB/7bXXdqzv/uKyyy7LH05y1FFHpYMOOqj75jxyfsQRR+RzxYeNbL/99umUU05Jce9mS20CwnJtbo4iQIAAAQIESibwwx/+sN8jyd2bHHOg4xZuxSfUxW3YivfFp93F6PXss8+eHxGUd99991xM57nT8Sl88SEgO+20U4qPdR7fEh/pvMUWW6STTz45f2jJ+PaJdXF7tzhfjCpHoD7vvPPSOeeck+/ZHNsjcK+xxhop6h4fpBLhPpa4H/I+++yT18cIdXyqX7G88soraZtttsnb4hME4xP9imXUqFF5fZzvj3/8Y7E6xQh4lBOj5VHvGIkuljgmtsUx8ctE/FIRjxh1P+uss/K2xx9/PD300EP5rh2xX/ySMylu9ScsF73mmQABAgQIECDQAIH4uOY33ngjP2IE+de//nVacMEF80dXx+liHm4ExO222y5961vfShdeeGF69913u9QkPuo5PrFut912S/FR2BOzRDCOJUaaP/300zR8+PAcfC+//PI8Al18zHV8nHV8ZHd8Ul7UZbPNNuuYEhL7xm3mIqg/+OCDebS6qMOVV16ZP9UvPp57q622Ss8880x6+OGH8wh4TEOJkfJoY/wyEBcsx/HHH398OvLII/NIfPxyEME6tt1zzz05sEcwj8AfH/Edc6IPP/zwdP311xenHNBnF/gNKLeTESBAgAABAq0mEB+zHY/Oy+jRozve3nTTTXlKRgTLL774Iq+PUd2YQlEsP/jBD9IKK6yQTj311Hxf6Pnmm6/YNMHnqaeeOu8Tc4sjuMe0jPgo6Zi3HSO2EVBjiU8LjHVx8eOIESPSmmuumUd7Y1t8bHVM74jl73//e3rkkUfy6/gnQu+6666b4uOm//CHP+RQG3OtV1555XTcccfl/SKQL7HEEvljq+MDTi699NK00kor5dHm+eefP09BieNjOfHEE9POO++cYmQ5pq3cdddd+YNTIqzH1JaBXowsD7S48xEgQIAAAQItJRDTDGLKRTxidHf11VfPH7ldIJx77rl5esGSSy6Zll566by6+1SMX/3qV+nGG2/MI9IxMjwxt5SMUe1YouwvfelL6b777stTI2LkNqZ2FEtcABmfzrfMMsvkUeR//OMfKT5FMJbOH14S0yo6z7deZZVV8j6TTTZZDsgxRSPCcrE+NkYgjiXC+HTTTZdDf4TmOFeYdF4iRMdyyy23pEUXXbTjEwaHDh3aebcBey0sDxi1ExEgQIAAAQKtKBBzluPjteMRI7k/+clP8ohpjPTGHNyYUxxhOC4OjEe8jqkNcVFgscRIcATdmCpx9dVX5/2KbRN6vuiii/IuMfUjpljElIYI3jE1IgJysbz99tu57GeffTbFSPZee+3VMYJcfNx1sW/n55jrXCxxp4qYdxwh+LnnnitWpyeeeCK/jsB+7LHH5lHjmK4R002+/vWvd+wXL+JuHrHE/O7HHnss1zPed57zHO8HahGWB0raeQgQIECAAAEC4wTmnHPO7PDBBx/ki+0iTMet2dZee+38iJHjWNf5YrkCbq211spzlmP/mDYxviVuMxdzj2Nu8EknnZT23HPPPPUi7pMcx8QIdtymLkaAI3wX91E+4IADUtxlI+pXTAHpy23hItzH7e5i3nWMnsf0i7gIMD4R8dZbb81VjAsYY5pFTPGI6RVf/epX82jzmDFj0lVXXdVRh87tGTZsWHaIqScffvhhl3nSnfdr9GthudHCyidAgAABAgRaWqAYKS0QZp555vwy7rV8/vnn5ztgdP5gj7iLRlzo130qRnF83ElinnnmSf/93/9drOp4jhHgmEO8+OKLp5i2EGXEvOG4MDCWuMguAnDcrzimVsQ86bgf9Omnn54vrIvb6w0ePDgtsMACaZdddklf+cpXOsru/CKmXBTL3XffnWJedNQnwnm8juM23njjPOUkpm2ceeaZKcJ4LHvvvXe+O0esj3bGHUDivHHxYyyFVzjEPOkY4Y5R9Qje8UtEsT3vPAD/tI2b89I+AOdxCgIECBCoQSD+U/BjugY4hxCoQaBVvt/iZ0rMKY5AHOH6nXfeyR8uEvOVY1pETI+ID1uJgNrX5fnnn0/xS0DMR+68xCh3TDWJ8jpP5YiR6NgWdQj3mMscAX58nxIYc66jjjGNpD9Budb+FZY796jXBAgQaDKBWn+4N1kzVIdAKQR8v5Wim2quZK39+//H0Gs+tQMJECBAgAABAgQIVFNAWK5mv2oVAQIECBAgQIBAHQSE5TogKoIAAQIECBAgQKCaAsJyNftVqwgQIECAAAECBOogICzXAVERBAgQIECAAAEC1RQQlqvZr1pFgAABAgQIECBQBwFhuQ6IiiBAgAABAgQIEKimgLBczX7VKgIECBAgQIAAgToICMt1QFQEAQIECBAgQIBANQWE5Wr2q1YRIECAAAECBAjUQUBYrgOiIggQIECAAAECBKopICxXs1+1igABAgQIECBAoA4CwnIdEBVBgAABAgQIECBQTQFhuZr9qlUECBAgQIAAAQJ1EBCW64CoCAIECBAgQIAAgWoKCMvV7FetIkCAAAECBAgQqIPAoDqUoQgCBAgQIECAQCUE2traKtEOjaifgLBcP0slESBAgAABAiUWaG9vL3HtVb1RAqZhNEpWuQQIECBAgAABAqUXEJZL34UaQIAAAQIECBAg0CgBYblRssolQIAAAQIECBAovYCwXPou1AACBAgQIECAAIFGCQjLjZJVLgECBAgQIECAQOkFhOXSd6EGECBAgAABAgQINEpAWG6UrHIJECBAgAABAgRKLyAsl74LNYAAAQIECBAgQKBRAj6UpFGyyiVAgAABAgRKJeDT+0rVXTVVtpYPnhGWa6J2EAECBAgQIFBFgVrCVBUdqtimWn8ZMg2jil8N2kSAAAECBAgQIFAXAWG5LowKIUCAAAECBAgQqKKAsFzFXtUmAgQIECBAgACBuggIy3VhVAgBAgQIECBAgEAVBYTlKvaqNhEgQIAAAQIECNRFQFiuC6NCCBAgQIAAAQIEqiggLFexV7WJAAECBAgQIECgLgLCcl0YFUKAAAECBAgQIFBFAWG5ir2qTQQIECBAgAABAnUREJbrwqgQAgQIECBAgACBKgoIy1XsVW0iQIAAAQIECBCoi4CwXBdGhRAgQIAAAQIECFRRQFiuYq9qEwECBAgQIECAQF0EhOW6MCqEAAECBAgQIECgigLCchV7VZsIECBAgAABAgTqIiAs14VRIQQIECBAgAABAlUUEJar2KvaRIAAAQIECBAgUBcBYbkujAohQIAAAQIECBCoooCwXMVe1SYCBAgQIECAAIG6CAjLdWFUCAECBAgQIECAQBUFhOUq9qo2ESBAgAABAgQI1EVAWK4Lo0IIECBAgAABAgSqKCAsV7FXtYkAAQIECBAgMB6Bt956azxr+7Zq7NixfduxYnsJyxXrUM0hQIAAAQIEqiXwox/9KLW1taW///3vXRo2bNiwvD62dX7stddeXfaLNxGSY//5558/Pfroo3n/iQ2/s8wyS7r//vt7lF31FYOq3kDtI0CAAAECBAiEwDHHHJOGDx+epp9++tKAfPbZZ+n000/Pdb7ooovSV7/61S5133///dP3v//9LutmmGGGLu/jzYMPPphuu+229OGHH6b29vZ08803p8knn7zHflb0FDCy3NPEGgIECBAgQKCCAiNGjEiDBw9OhxxySHrvvfdK0cLrrrsuTTPNNOnYY49N55xzTuo+GjzrrLOmIUOGdHlEGzsvL730Utp9993zqq222iq9+eab6YADDkiff/55Ou2009JBBx2UdthhhzTHHHOkjTbaKL3++ut534ceeiits846abHFFksHH3xwF7O77747rbHGGvmYHXfcMZcZB5111lm5vF122SXtuuuuuZyy/yMsl70H1Z8AAQIECBDok8DRRx+dYqR25MiRabbZZitFaD7//PNzkN1yyy3Ta6+9lm655ZYubb3nnnvS6NGjuzwiDHdeYvpEMaIewThGl//2t7/lXSJIH3bYYWmRRRZJJ598crr33nvTKaeckrdtvvnmaYoppkiHH354uv766zuKfPXVV9NKK62U/uu//itdfPHF6V//+leK+sVSlPfiiy+mbbfdtuOYMr8wDaPMvafuBAgQIECAQJ8F9tlnnzxC+s4776RPPvkkh+ZRo0almMqw77779rmcgdrx7bffThdccEGKQByjxRtuuGG68MIL09prr91RhRtuuCE99thjHe/jxdChQ/P+xcqpp546r4sR6pVXXjnPWS62xfPqq6+eR4Pj9ZgxY/L2xx9/PD311FPprrvuSjF6vfDCC6flllsudsnBfJ555kknnHBCnvscI9KLL754euWVV/L22WefPV1xxRVpssmqMSYrLOdu9Q8BAgSaVyAu3LEQINAYgSI033777Y05QT9KvfTSS/PR22yzTX6O8BrzrSOkRvCN5Sc/+Um/g/5CCy2Uy4p/ZpxxxvTRRx/lEexFF100B+VYHwG8WJ588sn0wgsv9AjDb7zxRt5l3XXX7bGtOLaMz8JyGXtNnQkQaCmBuBjHQoBAfQRiFDSmMxTLVFNN1TGyPL4L44r9JsVzzP+Nub/bbbddPn3MV95ggw3S1VdfnbbYYou6VWl8F/rFPOgYsY5zDho0KIfj4oQzzTRTWmGFFdJNN92UV8XUlpjfHOG6iks1xser2DPaRIAAAQIECNRVIEZkiwvkIiTH3OW4mC0uXmu2O2Q8/fTTeV7x3nvvnaddxNSL9ddfP8U84piaUSwxwvvAAw90eTzzzDPF5pqf4zZzYXLqqafmOc7FPOYoMKZtxNSQuJVd/OUrXL/xjW9UajS5M5yR5c4aXhMgQIAAAQKVFYi5yRGWIyTHHOVmC8id4eM2cTFS23n6Q2yPu1nE3SfefffdvPtxxx2X4tF5iX0uueSSzqtyqJ1yyim7rOvtTcw1jn2POOKIFPdsjsdqq62WvSIcR2gPvzXXXDMXEXOU4yLDGIGO7VWZq1z4tI37856/7xUangkQINBkAvEfjx/TTdYpqlNagQndZ9n3W8+ujXnIcUHkggsumINw5z1iVD7ujBEX/8VFhM2+1Nq/wnKz96z6ESDQ0gK1/nBvaTSNJ1CjgO+3GuFKclit/WvOckk6WDUJECBAgAABAgQGXkBYHnhzZyRAgAABAgQIECiJgLBcko5STQIECBAgQIAAgYEXEJYH3twZCRAgQIAAAQIESiIgLJeko1STAAECBAgQIEBg4AWE5YE3d0YCBAgQIECAAIGSCAjLJeko1SRAgAABAgQIEBh4AWF54M2dkQABAgQIECBAoCQCwnJJOko1CRAgQIAAAQIEBl5AWB54c2ckQIAAAQIECBAoiYCwXJKOUk0CBAgQIECAAIGBFxCWB97cGQkQIECAAAECBEoiICyXpKNUkwABAgQIECBAYOAFhOWBN3dGAgQIECBAgACBkggIyyXpKNUkQIAAAQIECBAYeAFheeDNnZEAAQIECBAgQKAkAsJySTpKNQkQIECAAAECBAZeQFgeeHNnJECAAAECBAgQKImAsFySjlJNAgQIECBAgACBgRcQlgfe3BkJECBAgAABAgRKIiAsl6SjVJMAAQIECBAgQGDgBYTlgTd3RgIECBAgQIAAgZIICMsl6SjVJECAAAECBAgQGHgBYXngzZ2RAAECBAgQIECgJAKDSlJP1SRAgAABAgQINFygra2t4edwgnIJCMvl6i+1JUCAAAECBBok0N7e3qCSFVtmAdMwytx76k6AAAECBAgQINBQAWG5obwKJ0CAAAECBAgQKLOAsFzm3lN3AgQIECBAgACBhgoIyw3lVTgBAgQIECBAgECZBYTlMveeuhMgQIAAAQIECDRUQFhuKK/CCRAgQIAAAQIEyiwgLJe599SdAAECBAgQIECgoQLCckN5FU6AAAECBAgQIFBmAR9KUubeU3cCBAgQIECgbgI+va9ulE1bUC0fPCMsN213qhgBAgQIECAw0AK1hKmBrqPz1SZQ6y9DpmHU5u0oAgQIECBAgACBFhAQllugkzWRAAECBAgQIECgNgFhuTY3RxEgQIAAAQIECLSAgLDcAp2siQQIECBAgAABArUJCMu1uTmKAAECBAgQIECgBQSE5RboZE0kQIAAAQIECBCoTUBYrs3NUQQIECBAgAABAi0gICy3QCdrIgECBAgQIECAQG0CwnJtbo4iQIAAAQIECBBoAQFhuQU6WRMJECBAgAABAgRqExCWa3NzFAECBAgQIECAQAsICMst0MmaSIAAAQIECBAgUJuAsFybm6MIECBAgAABAgRaQEBYboFO1kQCBAgQIECAAIHaBITl2twcRYAAAQIECBAg0AICwnILdLImEiBAgAABAgQI1CYgLNfm5igCBAgQIECAAIEWEBCWW6CTNZEAAQIECBAgQKA2AWG5NjdHESBAgAABAgQItICAsNwCnayJBAgQIECAAAECtQkIy7W5OYoAAQIECBAgQKAFBITlFuhkTSRAgAABAgQIEKhNQFiuzc1RBAgQIECAAAECLSAgLLdAJ2siAQIECBAgUA2Bo446Ks0xxxxdGjPvvPOmddZZp2Pd+++/n9ra2tKFF16Ynn322fz60UcfTU8++WR+/fTTT3fsW7y4/vrr87Y4rvvjpZdeShPaXpRTxedBVWyUNhEgQIAAAQIEugscc8wxafjw4Wn66afvvqk071dfffX005/+ND3zzDNpgQUWSBGCX3jhhfyIkDzddNOle++9N7dn1VVXTV988UWPtrW3t/e67qmnnuqxLcL5ww8/nNf3tr3HQRVaYWS5Qp2pKQQIECBAgEDvAiNGjEiDBw9OhxxySHrvvfd637GJtyy//PK5dvfcc09+vuGGG9IGG2yQFlxwwfS3v/0tr7vzzjvz+/nmm2+iWzJkyJDU/TH55JN3lNN9W7zvvL1jxwq9MLJcoc7UFAIECBAgQKB3gaOPPjr94Ac/SCNHjkyjRo1K+++/f9p3331LNdI81VRT5XB8xx13pG9961vp6quvzu8XW2yxPFViww03TLfddlte17tE71tGjx7dZeOcc86Z1lprrY51E9resWOFXrSNG4rvORZfoQZqCgECBMosEHMH/Zgucw+qe7MJzDTTTOmdd97pqFaEzyI0zzDDDKX4fvvFL36R5yNHYI76jxkzJj3//PNpv/32S4888kiKNp5xxhk5TMd0jRj9/d///d80aNCgtPDCC+e5yzES3Xm57rrr0nrrrZeWW265zqvTsGHD0gknnJAmtL3LQU36ptafp0aWm7RDVYsAAQKFQPyAtxAg0BiBTz75JI8033777Y05QQNKXWONNdKPf/zjPJIc86+HDh2a5y8/9thjOdTGFJPVVlutpjMX8517O3hC23s7rszrheUy9566EyDQEgJGlluimzVygATiYrXXXnut42zdR5Y7NjTxi2L099BDD02bbrppnjM888wzpxVWWCEdfPDBadFFF01zzTVXE7egXFUTlsvVX2pLgAABAgQI1CgQ0wnGjh2bj+4ckst2d4wpppgibbzxxunyyy9Pu+66a4fGRhttlC9e3HvvvTvWje9FTNWIO2cUS+db0T3wwAPF6o7nRRZZpON1b9unmWaajn2q9kJYrlqPag8BAgQIECAwXoGYmxxhOS7wK9uFfd0bFPdVjrC85pprdmyKC/HiTh+dL8gb3zSuTTbZpOOYeBEXO8aodCzLLrtsfu78z/3335/vvfyftsdUkKouLvCras9qFwEClRCo9YKUSjReIwjUWWBC91n2/VZn8CYrrtb+FZabrCNVhwABAp0Fav3h3rkMrwkQ6JuA77e+OZV1r1r714eSlLXH1ZsAAQIECBAgQKDhAsJyw4mdgAABAgQIECBAoKwCwnJZe069CRAgQIAAAQIEGi4gLDec2AkIECBAgAABAgTKKiAsl7Xn1JsAAQIECBAgQKDhAsJyw4mdgAABAgQIECBAoKwCwnJZe069CRAgQIAAAQIEGi4gLDec2AkIECBAgAABAgTKKiAsl7Xn1JsAAQIECBAgQKDhAsJyw4mdgAABAgQIECBAoKwCwnJZe069CRAgQIAAAQIEGi4gLDec2AkIECBAgAABAgTKKiAsl7Xn1JsAAQIECBAgQKDhAsJyw4mdgAABAgQIECBAoKwCwnJZe069CRAgQIAAAQIEGi4gLDec2AkIECBAgAABAgTKKiAsl7Xn1JsAAQIECBAgQKDhAsJyw4mdgAABAgQIECBAoKwCwnJZe069CRAgQIAAAQIEGi4gLDec2AkIECBAgAABAgTKKiAsl7Xn1JsAAQIECBAgQKDhAsJyw4mdgAABAgQIECBAoKwCwnJZe069CRAgQIAAAQIEGi4gLDec2AkIECBAgAABAgTKKjCorBVXbwIECBAgQIBAvQXa2trqXaTySi4gLJe8A1WfAAECBAgQqI9Ae3t7fQpSSqUETMOoVHdqDAECBAgQIECAQD0FhOV6aiqLAAECBAgQIECgUgLCcqW6U2MIECBAgAABAgTqKSAs11NTWQQIECBAgAABApUSEJYr1Z0aQ4AAAQIECBAgUE8BYbmemsoiQIAAAQIECBColICwXKnu1BgCBAgQIECAAIF6CgjL9dRUFgECBAgQIECAQKUEfChJpbpTYwgQIECAAIFaBXx6X61y5Tmulg+eEZbL079qSoAAAQIECDRYoJYw1eAqKb5OArX+MmQaRp06QDEECBAgQIAAAQLVExCWq9enWkSAAAECBAgQIFAnAWG5TpCKIUCAAAECBAgQqJ6AsFy9PtUiAgQIECBAgACBOgkIy3WCVAwBAgQIECBAgED1BITl6vWpFhEgQIAAAQIECNRJQFiuE6RiCBAgQIAAAQIEqicgLFevT7WIAAECBAgQIECgTgLCcp0gFUOAAAECBAgQIFA9AWG5en2qRQQIECBAgAABAnUSEJbrBKkYAgQIECBAgACB6gkIy9XrUy0iQIAAAQIECBCok4CwXCdIxRAgQIAAAQIECFRPQFiuXp9qEQECBAgQIECAQJ0EhOU6QSqGAAECBAgQIECgegLCcvX6VIsIECBAgAABAgTqJCAs1wlSMQQIECBAgAABAtUTEJar16daRIAAAQIECBAgUCcBYblOkIohQIAAAQIECBConoCwXL0+1SICBAgQIECAAIE6CQjLdYJUDAECBAgQIECAQPUEhOXq9akWESBAgAABAgQI1ElAWK4TpGIIECBAgAABAvUU+OKLL9JTTz2VXnrppXoWq6yJFBCWJxLM7gQIECBAgACBRgq0t7enUaNGpZlmmikttNBCae65504zzDBDOu200xp22uuvvz61tbX1eKy44orptddeG+/60aNH96hPse9mm23WY1tZVwjLZe059SZAgAABAgQmSuCYY45J77333kQdMyl2Puigg3JYvuCCC9Knn36aPv7443TKKaek3XbbLR1//PENqVIE9FieeOKJPJodI9rx+NOf/pSKbRGoX3311XTHHXek5ZdfPm233Xbp7LPPzscV/1xyySVp+umnT3/5y1/S66+/Xqwu9bOwXOruU3kCBAgQIECgrwIjRoxIgwcPToccckjThua33norHX744enYY49Nm2yySZpiiinSVFNNlbbffvt04IEHpgjSEV4j+I8cOTJtscUWaY455kg777xzevfddzPFK6+8krbZZpu8fv3110/33XdfXn/33Xfn9Yceemiad955c+C98847u/ANGTIkdX7MNddcHdvDbvbZZ08rr7xyDu8HHHBArlPHDuNenHHGGemoo47K+1166aWdN5X2tbBc2q5TcQIECBAgQGBiBI4++uj02Wef5ZA522yzNWVofvTRR3OTNthggx5Ni+AbI+MxYhsjwBH611tvvfS73/0u/e1vf0tnnXVWDtIxBSJCd6yPEeDlllsuvf322zlMX3TRRekf//hH3neaaaZJP/7xj7ucJ0azY3pF8XjzzTe7bO/85mtf+1p64YUXOkL6I488ksaMGZO++c1v5vB+7rnndt69tK8HlbbmKk6AAAECBAgQmAiBffbZJx188MHpnXfeSZ988kkOzTE3eP/990/77rvvRJTUuF2LcBrzlbsvk0327zHODz74IG+KQL3nnnvm10cccUSe0zxs2LB0zz33pKeffjotsMACaZ111klnnnlmiikUM844Y943Qux0002Xxo4dm7beeusupznssMO6vF9qqaXyCHWXlf/3ZuaZZ86vYppIzKmOgL3pppum+EVkyy23TPHLyTPPPJPrMb7jy7JOWC5LT6knAQItKxAX3VgIEGiMQBGab7/99sacYCJLLaY93HXXXWndddftcvStt96a38cFf7FEkC2WCMY33XRTHnGOdTGVovMSo9ERlmMaRQTlWCLgdp/DHaPDRSgvjo95yuNbnnvuuVxelPn555/nsP7RRx/lixJjrnUsMYf5Rz/60fgOL806YeRMYmoAAA9xSURBVLk0XaWiBAi0qkBxcU2rtl+7CdRTIOb3xh0biiXmAxcjyxEeJ/WyyCKL5Cpcc801PcLyddddl9Zaa6005ZRT5n1ihLxYHnrooRxci9HemLccF9rF8vDDD6f5558/3X///R3HFsf15zmmeayyyiq5iJgGEq5XX311GjTo3/EypnTE1BBhuT/KjiVAgAABAgQIDJDACSeckKcexOk6h+QiVA5QNf7jaWLUd+TIkfkxdOjQFPOPY7rEqaeemq699to8elwUEPOP46K/uAjw7HF3pYhpGTE/OZbzzjsv7b333vmYuFAwwnR/l7g7xtRTT53ef//99Nvf/jZdfPHF6d57783Fnn/++WmrrbZKMa+6WGIqSVzw9+CDD6ZlllmmWF26ZyPLpesyFSZAgAABAgRqEYgR5AieEUZjjnIzheTO7fnZz36W3+6www4dq2OqQ4zarrnmmh3r5pxzzo75wBGSf/7zn6dZZ501XXjhhWnbbbdN++23X973yCOPzFM2Xn755Y5ju7/4T9O9im3f+MY3Og7beOON0xVXXJHD+YcffphDcYTnzstXvvKVNM8886Q//OEPpQ7LbeP+vPfvG+t1bp3XBAgQINAUAvGflB/TTdEVKlEBgbjd2vDhw3sNyc32/Rbzfh977LE8t3i++ebr0gO77757/tCSuJVczEfuvj0uAoyL/GJ+czE1o0sBLfim1v4Vllvwi0WTCRAoj0CtP9zL00I1JdA8AmX6fivCctzNw9I3gVr71zSMvvnaiwABAgQIECDQNAIxlznmD1saL2BkufHGzkCAAIGaBWodCan5hA4k0MICvt+q3fm19q9P8Kv214XWESBAgAABAgQI9ENAWO4HnkMJECBAgAABAgSqLSAsV7t/tY4AAQIECBAgQKAfAsJyP/AcSoAAAQIECBAgUG0BYbna/at1BAgQIECAAAEC/RAQlvuB51ACBAgQIECAAIFqCwjL1e5frSNAgAABAgQIEOiHgLDcDzyHEiBAgAABAgQIVFtAWK52/2odAQIECBAgQIBAPwSE5X7gOZQAAQIECBAgQKDaAsJytftX6wgQIECAAAECBPohICz3A8+hBAgQIECAAAEC1RYQlqvdv1pHgAABAgQIECDQDwFhuR94DiVAgAABAgQIEKi2gLBc7f7VOgIECBAgQIAAgX4ICMv9wHMoAQIECBAgQIBAtQWE5Wr3r9YRIECAAAECBAj0Q0BY7geeQwkQIECAAAECBKotICxXu3+1jgABAgQIECBAoB8CwnI/8BxKgAABAgQIECBQbQFhudr9q3UECBAgQIAAAQL9EBCW+4HnUAIECBAgQIAAgWoLDKp287SOAAECBAgQINB3gba2tr7vbM+WEBCWW6KbNZIAAQIECBCYkEB7e/uEdrG9BQVMw2jBTtdkAgQIECBAgACBvgkIy31zshcBAgQIECBAgEALCgjLLdjpmkyAAAECBAgQINA3AWG5b072IkCAAAECBAgQaEEBYbkFO12TCRAgQIAAAQIE+iYgLPfNyV4ECBAgQIAAAQItKCAst2CnazIBAgQIECBAgEDfBITlvjnZiwABAgQIECBAoAUFfChJC3a6JhMgQIAAAQI9BXx6X0+Tqq2p5YNnhOWqfRVoDwECBAgQIFCzQC1hquaTOXBABWr9Zcg0jAHtJicjQIAAAQIECBAok4CwXKbeUlcCBAgQIECAAIEBFRCWB5TbyQgQIECAAAECBMokICyXqbfUlQABAgQIECBAYEAFhOUB5XYyAgQIECBAgACBMgkIy2XqLXUlQIAAAQIECBAYUAFheUC5nYwAAQIECBAgQKBMAsJymXpLXQkQIECAAAECBAZUQFgeUG4nI0CAAAECBAgQKJOAsFym3lJXAgQIECBAgACBARUQlgeU28kIECBAgAABAgTKJCAsl6m31JUAAQIECBAgQGBABYTlAeV2MgIECBAgQIAAgTIJCMtl6i11JUCAAAECBAgQGFABYXlAuZ2MAAECBAgQIECgTALCcpl6S10JECBAgAABAgQGVEBYHlBuJyNAgAABAgQIECiTgLBcpt5SVwIECBAgQIAAgQEVEJYHlNvJCBAgQIAAAQIEyiQgLJept9SVAAECBAgQIEBgQAWE5QHldjICBAgQIECAAIEyCQjLZeotdSVAgAABAgQIEBhQAWF5QLmdjAABAgQIECBQP4F//etf6ZFHHknvv//+eAv96KOP0osvvjjebfVY+dlnn9WjmKYuQ1hu6u5ROQIECBAgQKBqAr///e/TDDPM0KNZW2yxRdp3333z+mHDhqW2trYejyuvvDJvf/jhh9Pyyy+fBg8enJZccsk0/fTTp3322ScV4fX5559P22+/fZp22mnTPPPMkxZbbLF01FFH9ThnrLj++ut7nGezzTZLN95443j3L1a+8MILacopp0wff/xxsarj+dZbb01zzDFHfj9y5Mi08847d2wr2wthuWw9pr4ECBAgQIBATQLHHHNMeu+992o6tp4Htbe396m4H/7wh+mpp57q8lhzzTXTG2+8kVZeeeX8ePvtt3NAvu2229JZZ52VDjvssFx2PI8dOza98sorKfY58MAD009/+tN01VVX9Th3UZ+XX345vfrqq/l8s802W9p2221zGT0O6MOKKDNGtWPZaaed8rn7cFhT7iIsN2W3qBQBAgQIECBQb4ERI0bkkdhDDjmkKULzhNoXo8ZDhgzp8oiR4lNOOSXNOOOM6fjjj8/PgwYNSquuumo677zz0jTTTJOLveyyy9JSSy2VR3dj3+985zvp5JNPHu+IdlGP2WefPcUjzhmj1K+99lqKEew47vDDDy92SyeddFKXUepRo0bl88To9R//+MeO/YoXN9xwQ/rDH/6Q3z744IMpRs1jZP3b3/52euKJJ4rdmvZZWG7arlExAgQIECBAoJ4CRx99dB6FjWkBMXI6KUNzjHDHtIjOj5h73Hm577770ujRozseN910U9780EMPpXXXXTdNMcUUnXdPm2++edp///3zunh98MEH56kY5557bh4t3mOPPXKo7nJQpzcffvhhisezzz6bTj311BycI3DHlI5nnnmmY8+YfvHcc891vI+pIaeffnoue6uttuqyb+wU+z766KN5ukbUO0L15Zdfnj744IP085//vKOcZn0xqFkrpl4ECBAgQIAAgXoKxGhpBMh33nknffLJJylCc4yKRsAs5grX83wTKuvmm2/usktMg+i8xJSJ+++/v2PV2muvndZaa6301ltvpS9/+csd68f34sQTT0zLLrtsHumNaRCxrLfeejl4x4j1+JaY91wsQ4cOTb/5zW/S5JNPXqzq9fnII4/M4X3TTTfNI8gxB3rRRRftsX/MgY7R6l/96lcdc6kjZDf7Iiw3ew+pHwECLS0Q/zHGRT4WAgQaI1CE5ttvv70xJ+il1AimV1xxRZetcYFf5yVCfDFS3Hn9QgstlIpR5s7rY8pErN91113zfOE999wzxSNGi2NaRqyPYBtzt8e3PP744/nnTUzrmH/++ce3S1736aefdtm2yiqr5PeTTTZZnkf95ptvdtlevIkR5gjRMZUklpjuEb+sNPtiGkaz95D6ESDQ0gIxEhMXyngw8DVQn6+BmJPbeZlqqqnyCPMll1zSeXVTv1566aXTAw88kC/G61zRX/ziF3kkOuYBzzLLLHnqRWyPcBrzg7feeusUgbi3ZcEFF0wRxMcXlD///POOw+Kiw85LjHQXS4yEr7jiisXbLs8RlB977LGOiwZfeumlPMrcZacmfCMsN2GnqBIBAgQIECBQf4ETTjihI6gVIfn111/PUzM6T0Go/5nrW2Lchi1uB7fLLrukp59+Os/9PeOMM9LZZ5+dR48j9MYvBXEHjHfffTefPEad45fvuN3cxC7zzTdfuuWWW/K5xowZk0epO5cR0ypihD7uxhHTLOJOHeNbVltttXyLu5jeEaPdcceOe++9d3y7NtU60zCaqjtUhgABAgQIEGiUQExpiNupxVzlmKM8qQJyf6dWfelLX0qXXnppvngvgnGxRAhdbrnl8tuYdhH3WY47YRTtjIvv4vZx3ZcJ1WeTTTbJ0yXiXBHSV1999S5F3H333WnqqafO6+JOGfG6e5kxRSPuyRxTQIYPH57iYsMVVlghB/wuhTXhm7Zxf9bp283+mrDyqkSAAAECBAgQ6KtAEdSK8Nj9uAh4ZYpFUdf4dL64n3HM/425xp2X+MUg7mIRo75LLLFEisBa6/LFF1+kuABxrrnm6hGEo8y4Y8bMM8+cpptuugmeIkaV4yLLOeecc4L71nOHWvtXWK5nLyiLAAECBAgQKK1ArWGqtA1usYrX2r+1/4rRYsCaS4AAAQIECBAg0HoCwnLr9bkWEyBAgAABAgQI9FFAWO4jlN0IECBAgAABAgRaT0BYbr0+12ICBAgQIECAAIE+CgjLfYSyGwECBAgQIECAQOsJCMut1+daTIAAAQIECBAg0EcBYbmPUHYjQIAAAQIECBBoPQFhufX6XIsJECBAgAABAgT6KCAs9xHKbgQIECBAgAABAq0nICy3Xp9rMQECBAgQIECAQB8FhOU+QtmNAAECBAgQIECg9QSE5dbrcy0mQIAAAQIECBDoo4Cw3EcouxEgQIAAAQIECLSegLDcen2uxQQIECBAgAABAn0UEJb7CGU3AgQIECBAgACB1hMQlluvz7WYAAECBAgQIECgjwLCch+h7EaAAAECBAgQINB6AsJy6/W5FhMgQIAAAQIECPRRQFjuI5TdCBAgQIAAAQIEWk9AWG69PtdiAgQIECBAgACBPgoIy32EshsBAgQIECBAgEDrCQjLrdfnWkyAAAECBAgQINBHAWG5j1B2I0CAAAECBAgQaD0BYbn1+lyLCRAgQIAAAQIE+igwqI/72Y0AAQIECBAgUHmBtra2yrdRAydOQFieOC97EyBAgAABAhUVaG9vr2jLNKs/AqZh9EfPsQQIECBAgAABApUWEJYr3b0aR4AAAQIECBAg0B8BYbk/eo4lQIAAAQIECBCotICwXOnu1TgCBAgQIECAAIH+CAjL/dFzLAECBAgQIECAQKUFhOVKd6/GESBAgAABAgQI9EdAWO6PnmMJECBAgAABAgQqLSAsV7p7NY4AAQIECBAgQKA/AsJyf/QcS4AAAQIECBAgUGkBYbnS3atxBAgQIECAAAEC/REQlvuj51gCBAgQIECAAIFKCwjLle5ejSNAgAABAgQIEOiPgLDcHz3HEiBAgAABAgQIVFrg/wEYjMj8YLchUgAAAABJRU5ErkJggg==;" vertex="1" parent="WIyWlLk6GJQsqaUBKTNV-1">
          <mxGeometry x="-240" y="1770" width="715" height="523" as="geometry" />
        </mxCell>
        <mxCell id="Y-bC4dFZqXMmufeN_1P_-27" value="&lt;font color=&quot;#ff8000&quot;&gt;XML&lt;/font&gt;" style="text;html=1;align=center;verticalAlign=middle;whiteSpace=wrap;rounded=0;fillColor=#FFFFFF;" vertex="1" parent="WIyWlLk6GJQsqaUBKTNV-1">
          <mxGeometry x="-80" y="1810" width="60" height="30" as="geometry" />
        </mxCell>
        <mxCell id="Y-bC4dFZqXMmufeN_1P_-28" value="&lt;font color=&quot;#ff8000&quot;&gt;JSON&lt;/font&gt;" style="text;html=1;align=center;verticalAlign=middle;whiteSpace=wrap;rounded=0;fillColor=#FFFFFF;" vertex="1" parent="WIyWlLk6GJQsqaUBKTNV-1">
          <mxGeometry x="200" y="2017" width="60" height="30" as="geometry" />
        </mxCell>
        <mxCell id="Y-bC4dFZqXMmufeN_1P_-29" value="&lt;font color=&quot;#ff8000&quot;&gt;JSON&lt;/font&gt;" style="text;html=1;align=center;verticalAlign=middle;whiteSpace=wrap;rounded=0;fillColor=#FFFFFF;" vertex="1" parent="WIyWlLk6GJQsqaUBKTNV-1">
          <mxGeometry x="20" y="1810" width="60" height="30" as="geometry" />
        </mxCell>
        <mxCell id="Y-bC4dFZqXMmufeN_1P_-30" value="&lt;font color=&quot;#ff8000&quot;&gt;CSV/EXCEL&lt;/font&gt;" style="text;html=1;align=center;verticalAlign=middle;whiteSpace=wrap;rounded=0;fillColor=#FFFFFF;" vertex="1" parent="WIyWlLk6GJQsqaUBKTNV-1">
          <mxGeometry x="200" y="1880" width="60" height="30" as="geometry" />
        </mxCell>
        <mxCell id="Y-bC4dFZqXMmufeN_1P_-31" value="&lt;font color=&quot;#ff8000&quot;&gt;CSV/EXCEL&lt;/font&gt;" style="text;html=1;align=center;verticalAlign=middle;whiteSpace=wrap;rounded=0;fillColor=#FFFFFF;" vertex="1" parent="WIyWlLk6GJQsqaUBKTNV-1">
          <mxGeometry x="200" y="2160" width="60" height="30" as="geometry" />
        </mxCell>
        <mxCell id="Y-bC4dFZqXMmufeN_1P_-32" value="&lt;p style=&quot;margin: 0.0px 0.0px 0.0px 0.0px&quot;&gt;&lt;font color=&quot;#ff8000&quot; style=&quot;font-style: normal; font-variant: common-ligatures; font-size-adjust: none; font-kerning: auto; font-optical-sizing: auto; font-feature-settings: normal; font-variation-settings: normal; font-weight: normal; font-stretch: normal; font-size: 10px; line-height: normal; font-family: &amp;quot;Helvetica Neue&amp;quot;;&quot; size=&quot;2&quot; face=&quot;Helvetica Neue&quot;&gt;TBD (likely CSV or JSON)&lt;/font&gt;&lt;/p&gt;" style="text;html=1;align=center;verticalAlign=middle;whiteSpace=wrap;rounded=0;fillColor=#FFFFFF;" vertex="1" parent="WIyWlLk6GJQsqaUBKTNV-1">
          <mxGeometry x="170" y="2090" width="120" height="30" as="geometry" />
        </mxCell>
        <mxCell id="Y-bC4dFZqXMmufeN_1P_-33" value="&lt;font color=&quot;#ff8000&quot;&gt;CSV/EXCEL&lt;/font&gt;" style="text;html=1;align=center;verticalAlign=middle;whiteSpace=wrap;rounded=0;fillColor=#FFFFFF;" vertex="1" parent="WIyWlLk6GJQsqaUBKTNV-1">
          <mxGeometry x="200" y="1810" width="60" height="30" as="geometry" />
        </mxCell>
        <mxCell id="Y-bC4dFZqXMmufeN_1P_-34" value="&lt;font color=&quot;#ff8000&quot;&gt;CSV&lt;/font&gt;" style="text;html=1;align=center;verticalAlign=middle;whiteSpace=wrap;rounded=0;fillColor=#FFFFFF;" vertex="1" parent="WIyWlLk6GJQsqaUBKTNV-1">
          <mxGeometry x="200" y="1950" width="60" height="30" as="geometry" />
        </mxCell>
        <mxCell id="Y-bC4dFZqXMmufeN_1P_-35" value="&lt;font color=&quot;#ff8000&quot;&gt;CSV&lt;/font&gt;" style="text;html=1;align=center;verticalAlign=middle;whiteSpace=wrap;rounded=0;fillColor=#FFFFFF;" vertex="1" parent="WIyWlLk6GJQsqaUBKTNV-1">
          <mxGeometry x="200" y="2230" width="60" height="30" as="geometry" />
        </mxCell>
        <mxCell id="Y-bC4dFZqXMmufeN_1P_-36" value="&lt;font color=&quot;#ff8000&quot;&gt;XML&lt;/font&gt;" style="text;html=1;align=center;verticalAlign=middle;whiteSpace=wrap;rounded=0;fillColor=#FFFFFF;" vertex="1" parent="WIyWlLk6GJQsqaUBKTNV-1">
          <mxGeometry x="170" y="195" width="60" height="30" as="geometry" />
        </mxCell>
        <mxCell id="Y-bC4dFZqXMmufeN_1P_-37" value="&lt;font color=&quot;#ff8000&quot;&gt;JSON&lt;/font&gt;" style="text;html=1;align=center;verticalAlign=middle;whiteSpace=wrap;rounded=0;fillColor=#FFFFFF;" vertex="1" parent="WIyWlLk6GJQsqaUBKTNV-1">
          <mxGeometry x="450" y="402" width="60" height="30" as="geometry" />
        </mxCell>
        <mxCell id="Y-bC4dFZqXMmufeN_1P_-38" value="&lt;font color=&quot;#ff8000&quot;&gt;JSON&lt;/font&gt;" style="text;html=1;align=center;verticalAlign=middle;whiteSpace=wrap;rounded=0;fillColor=#FFFFFF;" vertex="1" parent="WIyWlLk6GJQsqaUBKTNV-1">
          <mxGeometry x="270" y="195" width="60" height="30" as="geometry" />
        </mxCell>
        <mxCell id="Y-bC4dFZqXMmufeN_1P_-39" value="&lt;font color=&quot;#ff8000&quot;&gt;CSV/EXCEL&lt;/font&gt;" style="text;html=1;align=center;verticalAlign=middle;whiteSpace=wrap;rounded=0;fillColor=#FFFFFF;" vertex="1" parent="WIyWlLk6GJQsqaUBKTNV-1">
          <mxGeometry x="450" y="265" width="60" height="30" as="geometry" />
        </mxCell>
        <mxCell id="Y-bC4dFZqXMmufeN_1P_-40" value="&lt;font color=&quot;#ff8000&quot;&gt;CSV/EXCEL&lt;/font&gt;" style="text;html=1;align=center;verticalAlign=middle;whiteSpace=wrap;rounded=0;fillColor=#FFFFFF;" vertex="1" parent="WIyWlLk6GJQsqaUBKTNV-1">
          <mxGeometry x="450" y="545" width="60" height="30" as="geometry" />
        </mxCell>
        <mxCell id="Y-bC4dFZqXMmufeN_1P_-41" value="&lt;p style=&quot;margin: 0.0px 0.0px 0.0px 0.0px&quot;&gt;&lt;font color=&quot;#ff8000&quot; style=&quot;font-style: normal; font-variant: common-ligatures; font-size-adjust: none; font-kerning: auto; font-optical-sizing: auto; font-feature-settings: normal; font-variation-settings: normal; font-weight: normal; font-stretch: normal; font-size: 10px; line-height: normal; font-family: &amp;quot;Helvetica Neue&amp;quot;;&quot; size=&quot;2&quot; face=&quot;Helvetica Neue&quot;&gt;TBD (likely CSV or JSON)&lt;/font&gt;&lt;/p&gt;" style="text;html=1;align=center;verticalAlign=middle;whiteSpace=wrap;rounded=0;fillColor=#FFFFFF;" vertex="1" parent="WIyWlLk6GJQsqaUBKTNV-1">
          <mxGeometry x="420" y="475" width="120" height="30" as="geometry" />
        </mxCell>
        <mxCell id="Y-bC4dFZqXMmufeN_1P_-42" value="&lt;font color=&quot;#ff8000&quot;&gt;CSV/EXCEL&lt;/font&gt;" style="text;html=1;align=center;verticalAlign=middle;whiteSpace=wrap;rounded=0;fillColor=#FFFFFF;" vertex="1" parent="WIyWlLk6GJQsqaUBKTNV-1">
          <mxGeometry x="450" y="195" width="60" height="30" as="geometry" />
        </mxCell>
        <mxCell id="Y-bC4dFZqXMmufeN_1P_-43" value="&lt;font color=&quot;#ff8000&quot;&gt;CSV&lt;/font&gt;" style="text;html=1;align=center;verticalAlign=middle;whiteSpace=wrap;rounded=0;fillColor=#FFFFFF;" vertex="1" parent="WIyWlLk6GJQsqaUBKTNV-1">
          <mxGeometry x="450" y="335" width="60" height="30" as="geometry" />
        </mxCell>
        <mxCell id="Y-bC4dFZqXMmufeN_1P_-44" value="&lt;font color=&quot;#ff8000&quot;&gt;CSV&lt;/font&gt;" style="text;html=1;align=center;verticalAlign=middle;whiteSpace=wrap;rounded=0;fillColor=#FFFFFF;" vertex="1" parent="WIyWlLk6GJQsqaUBKTNV-1">
          <mxGeometry x="450" y="615" width="60" height="30" as="geometry" />
        </mxCell>
        <mxCell id="Y-bC4dFZqXMmufeN_1P_-47" value="Input" style="swimlane;whiteSpace=wrap;html=1;" vertex="1" parent="WIyWlLk6GJQsqaUBKTNV-1">
          <mxGeometry x="-280" y="136" width="200" height="120" as="geometry" />
        </mxCell>
        <mxCell id="Y-bC4dFZqXMmufeN_1P_-48" value="XML&lt;br&gt;CSV&lt;br&gt;JSON&lt;div&gt;EXCEL&lt;/div&gt;" style="text;html=1;align=center;verticalAlign=middle;whiteSpace=wrap;rounded=0;" vertex="1" parent="Y-bC4dFZqXMmufeN_1P_-47">
          <mxGeometry y="30" width="200" height="90" as="geometry" />
        </mxCell>
        <mxCell id="Y-bC4dFZqXMmufeN_1P_-51" style="edgeStyle=orthogonalEdgeStyle;rounded=0;orthogonalLoop=1;jettySize=auto;html=1;exitX=1;exitY=0.5;exitDx=0;exitDy=0;entryX=0;entryY=0.5;entryDx=0;entryDy=0;" edge="1" parent="WIyWlLk6GJQsqaUBKTNV-1" source="Y-bC4dFZqXMmufeN_1P_-48" target="Y-bC4dFZqXMmufeN_1P_-0">
          <mxGeometry relative="1" as="geometry" />
        </mxCell>
        <mxCell id="Y-bC4dFZqXMmufeN_1P_-53" value="&lt;table cellspacing=&quot;0&quot; cellpadding=&quot;0&quot; style=&quot;border-collapse: collapse&quot;&gt;&#xa;&lt;tbody&gt;&#xa;&lt;tr&gt;&#xa;&lt;td valign=&quot;top&quot; style=&quot;width: 180.0px; height: 11.0px; background-color: #b0b3b2; border-style: solid; border-width: 1.0px 1.0px 1.0px 1.0px; border-color: #000000 #000000 #000000 #000000; padding: 4.0px 4.0px 4.0px 4.0px&quot;&gt;&#xa;&lt;p style=&quot;margin: 0.0px 0.0px 0.0px 0.0px&quot;&gt;&lt;font face=&quot;Helvetica Neue&quot; size=&quot;2&quot; color=&quot;#000000&quot; style=&quot;font: 10.0px &#39;Helvetica Neue&#39;; font-variant-ligatures: common-ligatures; color: #000000&quot;&gt;&lt;b&gt;System/Endpoint&lt;/b&gt;&lt;b&gt;&lt;/b&gt;&lt;/font&gt;&lt;/p&gt;&#xa;&lt;/td&gt;&#xa;&lt;td valign=&quot;top&quot; style=&quot;width: 124.0px; height: 11.0px; background-color: #b0b3b2; border-style: solid; border-width: 1.0px 1.0px 1.0px 1.0px; border-color: #000000 #000000 #000000 #000000; padding: 4.0px 4.0px 4.0px 4.0px&quot;&gt;&#xa;&lt;p style=&quot;margin: 0.0px 0.0px 0.0px 0.0px&quot;&gt;&lt;font face=&quot;Helvetica Neue&quot; size=&quot;2&quot; color=&quot;#000000&quot; style=&quot;font: 10.0px &#39;Helvetica Neue&#39;; font-variant-ligatures: common-ligatures; color: #000000&quot;&gt;&lt;b&gt;Expected Format&lt;/b&gt;&lt;b&gt;&lt;/b&gt;&lt;/font&gt;&lt;/p&gt;&#xa;&lt;/td&gt;&#xa;&lt;td valign=&quot;top&quot; style=&quot;width: 211.0px; height: 11.0px; background-color: #b0b3b2; border-style: solid; border-width: 1.0px 1.0px 1.0px 1.0px; border-color: #000000 #000000 #000000 #000000; padding: 4.0px 4.0px 4.0px 4.0px&quot;&gt;&#xa;&lt;p style=&quot;margin: 0.0px 0.0px 0.0px 0.0px&quot;&gt;&lt;font face=&quot;Helvetica Neue&quot; size=&quot;2&quot; color=&quot;#000000&quot; style=&quot;font: 10.0px &#39;Helvetica Neue&#39;; font-variant-ligatures: common-ligatures; color: #000000&quot;&gt;&lt;b&gt;What You Can Do Next&lt;/b&gt;&lt;b&gt;&lt;/b&gt;&lt;/font&gt;&lt;/p&gt;&#xa;&lt;/td&gt;&#xa;&lt;/tr&gt;&#xa;&lt;tr&gt;&#xa;&lt;td valign=&quot;top&quot; style=&quot;width: 180.0px; height: 12.0px; background-color: #d4d4d4; border-style: solid; border-width: 1.0px 1.0px 1.0px 1.0px; border-color: #000000 #000000 #000000 #000000; padding: 4.0px 4.0px 4.0px 4.0px&quot;&gt;&#xa;&lt;p style=&quot;margin: 0.0px 0.0px 0.0px 0.0px&quot;&gt;&lt;font face=&quot;Helvetica Neue&quot; size=&quot;2&quot; color=&quot;#000000&quot; style=&quot;font: 10.0px &#39;Helvetica Neue&#39;; font-variant-ligatures: common-ligatures; color: #000000&quot;&gt;&lt;b&gt;EBO&lt;/b&gt;&lt;b&gt;&lt;/b&gt;&lt;/font&gt;&lt;/p&gt;&#xa;&lt;/td&gt;&#xa;&lt;td valign=&quot;top&quot; style=&quot;width: 124.0px; height: 12.0px; border-style: solid; border-width: 1.0px 1.0px 1.0px 1.0px; border-color: #000000 #000000 #000000 #000000; padding: 4.0px 4.0px 4.0px 4.0px&quot;&gt;&#xa;&lt;p style=&quot;margin: 0.0px 0.0px 0.0px 0.0px&quot;&gt;&lt;font face=&quot;Helvetica Neue&quot; size=&quot;2&quot; color=&quot;#000000&quot; style=&quot;font: 10.0px &#39;Helvetica Neue&#39;; font-variant-ligatures: common-ligatures; color: #000000&quot;&gt;CSV or Excel&lt;/font&gt;&lt;/p&gt;&#xa;&lt;/td&gt;&#xa;&lt;td valign=&quot;top&quot; style=&quot;width: 211.0px; height: 12.0px; border-style: solid; border-width: 1.0px 1.0px 1.0px 1.0px; border-color: #000000 #000000 #000000 #000000; padding: 4.0px 4.0px 4.0px 4.0px&quot;&gt;&#xa;&lt;p style=&quot;margin: 0.0px 0.0px 0.0px 0.0px&quot;&gt;&lt;font face=&quot;Helvetica Neue&quot; size=&quot;2&quot; color=&quot;#000000&quot; style=&quot;font: 10.0px &#39;Helvetica Neue&#39;; font-variant-ligatures: common-ligatures; color: #000000&quot;&gt;Create downloadable CSV/Excel export&lt;/font&gt;&lt;/p&gt;&#xa;&lt;/td&gt;&#xa;&lt;/tr&gt;&#xa;&lt;tr&gt;&#xa;&lt;td valign=&quot;top&quot; style=&quot;width: 180.0px; height: 11.0px; background-color: #d4d4d4; border-style: solid; border-width: 1.0px 1.0px 1.0px 1.0px; border-color: #000000 #000000 #000000 #000000; padding: 4.0px 4.0px 4.0px 4.0px&quot;&gt;&#xa;&lt;p style=&quot;margin: 0.0px 0.0px 0.0px 0.0px&quot;&gt;&lt;font face=&quot;Helvetica Neue&quot; size=&quot;2&quot; color=&quot;#000000&quot; style=&quot;font: 10.0px &#39;Helvetica Neue&#39;; font-variant-ligatures: common-ligatures; color: #000000&quot;&gt;&lt;b&gt;PowerBI&lt;/b&gt;&lt;b&gt;&lt;/b&gt;&lt;/font&gt;&lt;/p&gt;&#xa;&lt;/td&gt;&#xa;&lt;td valign=&quot;top&quot; style=&quot;width: 124.0px; height: 11.0px; border-style: solid; border-width: 1.0px 1.0px 1.0px 1.0px; border-color: #000000 #000000 #000000 #000000; padding: 4.0px 4.0px 4.0px 4.0px&quot;&gt;&#xa;&lt;p style=&quot;margin: 0.0px 0.0px 0.0px 0.0px&quot;&gt;&lt;font face=&quot;Helvetica Neue&quot; size=&quot;2&quot; color=&quot;#000000&quot; style=&quot;font: 10.0px &#39;Helvetica Neue&#39;; font-variant-ligatures: common-ligatures; color: #000000&quot;&gt;CSV or Excel&lt;/font&gt;&lt;/p&gt;&#xa;&lt;/td&gt;&#xa;&lt;td valign=&quot;top&quot; style=&quot;width: 211.0px; height: 11.0px; border-style: solid; border-width: 1.0px 1.0px 1.0px 1.0px; border-color: #000000 #000000 #000000 #000000; padding: 4.0px 4.0px 4.0px 4.0px&quot;&gt;&#xa;&lt;p style=&quot;margin: 0.0px 0.0px 0.0px 0.0px&quot;&gt;&lt;font face=&quot;Helvetica Neue&quot; size=&quot;2&quot; color=&quot;#000000&quot; style=&quot;font: 10.0px &#39;Helvetica Neue&#39;; font-variant-ligatures: common-ligatures; color: #000000&quot;&gt;Create downloadable CSV/Excel export&lt;/font&gt;&lt;/p&gt;&#xa;&lt;/td&gt;&#xa;&lt;/tr&gt;&#xa;&lt;tr&gt;&#xa;&lt;td valign=&quot;top&quot; style=&quot;width: 180.0px; height: 11.0px; background-color: #d4d4d4; border-style: solid; border-width: 1.0px 1.0px 1.0px 1.0px; border-color: #000000 #000000 #000000 #000000; padding: 4.0px 4.0px 4.0px 4.0px&quot;&gt;&#xa;&lt;p style=&quot;margin: 0.0px 0.0px 0.0px 0.0px&quot;&gt;&lt;font face=&quot;Helvetica Neue&quot; size=&quot;2&quot; color=&quot;#000000&quot; style=&quot;font: 10.0px &#39;Helvetica Neue&#39;; font-variant-ligatures: common-ligatures; color: #000000&quot;&gt;&lt;b&gt;HFP Complaint FDA TRAK Dashboard&lt;/b&gt;&lt;b&gt;&lt;/b&gt;&lt;/font&gt;&lt;/p&gt;&#xa;&lt;/td&gt;&#xa;&lt;td valign=&quot;top&quot; style=&quot;width: 124.0px; height: 11.0px; border-style: solid; border-width: 1.0px 1.0px 1.0px 1.0px; border-color: #000000 #000000 #000000 #000000; padding: 4.0px 4.0px 4.0px 4.0px&quot;&gt;&#xa;&lt;p style=&quot;margin: 0.0px 0.0px 0.0px 0.0px&quot;&gt;&lt;font face=&quot;Helvetica Neue&quot; size=&quot;2&quot; color=&quot;#000000&quot; style=&quot;font: 10.0px &#39;Helvetica Neue&#39;; font-variant-ligatures: common-ligatures; color: #000000&quot;&gt;CSV&lt;/font&gt;&lt;/p&gt;&#xa;&lt;/td&gt;&#xa;&lt;td valign=&quot;top&quot; style=&quot;width: 211.0px; height: 11.0px; border-style: solid; border-width: 1.0px 1.0px 1.0px 1.0px; border-color: #000000 #000000 #000000 #000000; padding: 4.0px 4.0px 4.0px 4.0px&quot;&gt;&#xa;&lt;p style=&quot;margin: 0.0px 0.0px 0.0px 0.0px&quot;&gt;&lt;font face=&quot;Helvetica Neue&quot; size=&quot;2&quot; color=&quot;#000000&quot; style=&quot;font: 10.0px &#39;Helvetica Neue&#39;; font-variant-ligatures: common-ligatures; color: #000000&quot;&gt;Prepare dashboard-ready CSV extract&lt;/font&gt;&lt;/p&gt;&#xa;&lt;/td&gt;&#xa;&lt;/tr&gt;&#xa;&lt;tr&gt;&#xa;&lt;td valign=&quot;top&quot; style=&quot;width: 180.0px; height: 11.0px; background-color: #d4d4d4; border-style: solid; border-width: 1.0px 1.0px 1.0px 1.0px; border-color: #000000 #000000 #000000 #000000; padding: 4.0px 4.0px 4.0px 4.0px&quot;&gt;&#xa;&lt;p style=&quot;margin: 0.0px 0.0px 0.0px 0.0px&quot;&gt;&lt;font face=&quot;Helvetica Neue&quot; size=&quot;2&quot; color=&quot;#000000&quot; style=&quot;font: 10.0px &#39;Helvetica Neue&#39;; font-variant-ligatures: common-ligatures; color: #000000&quot;&gt;&lt;b&gt;AE Finder&lt;/b&gt;&lt;b&gt;&lt;/b&gt;&lt;/font&gt;&lt;/p&gt;&#xa;&lt;/td&gt;&#xa;&lt;td valign=&quot;top&quot; style=&quot;width: 124.0px; height: 11.0px; border-style: solid; border-width: 1.0px 1.0px 1.0px 1.0px; border-color: #000000 #000000 #000000 #000000; padding: 4.0px 4.0px 4.0px 4.0px&quot;&gt;&#xa;&lt;p style=&quot;margin: 0.0px 0.0px 0.0px 0.0px&quot;&gt;&lt;font face=&quot;Helvetica Neue&quot; size=&quot;2&quot; color=&quot;#000000&quot; style=&quot;font: 10.0px &#39;Helvetica Neue&#39;; font-variant-ligatures: common-ligatures; color: #000000&quot;&gt;JSON (with scoring)&lt;/font&gt;&lt;/p&gt;&#xa;&lt;/td&gt;&#xa;&lt;td valign=&quot;top&quot; style=&quot;width: 211.0px; height: 11.0px; border-style: solid; border-width: 1.0px 1.0px 1.0px 1.0px; border-color: #000000 #000000 #000000 #000000; padding: 4.0px 4.0px 4.0px 4.0px&quot;&gt;&#xa;&lt;p style=&quot;margin: 0.0px 0.0px 0.0px 0.0px&quot;&gt;&lt;font face=&quot;Helvetica Neue&quot; size=&quot;2&quot; color=&quot;#000000&quot; style=&quot;font: 10.0px &#39;Helvetica Neue&#39;; font-variant-ligatures: common-ligatures; color: #000000&quot;&gt;Add scoring engine, export as JSON&lt;/font&gt;&lt;/p&gt;&#xa;&lt;/td&gt;&#xa;&lt;/tr&gt;&#xa;&lt;tr&gt;&#xa;&lt;td valign=&quot;top&quot; style=&quot;width: 180.0px; height: 11.0px; background-color: #d4d4d4; border-style: solid; border-width: 1.0px 1.0px 1.0px 1.0px; border-color: #000000 #000000 #000000 #000000; padding: 4.0px 4.0px 4.0px 4.0px&quot;&gt;&#xa;&lt;p style=&quot;margin: 0.0px 0.0px 0.0px 0.0px&quot;&gt;&lt;font face=&quot;Helvetica Neue&quot; size=&quot;2&quot; color=&quot;#000000&quot; style=&quot;font: 10.0px &#39;Helvetica Neue&#39;; font-variant-ligatures: common-ligatures; color: #000000&quot;&gt;&lt;b&gt;WILEE (Future)&lt;/b&gt;&lt;b&gt;&lt;/b&gt;&lt;/font&gt;&lt;/p&gt;&#xa;&lt;/td&gt;&#xa;&lt;td valign=&quot;top&quot; style=&quot;width: 124.0px; height: 11.0px; border-style: solid; border-width: 1.0px 1.0px 1.0px 1.0px; border-color: #000000 #000000 #000000 #000000; padding: 4.0px 4.0px 4.0px 4.0px&quot;&gt;&#xa;&lt;p style=&quot;margin: 0.0px 0.0px 0.0px 0.0px&quot;&gt;&lt;font face=&quot;Helvetica Neue&quot; size=&quot;2&quot; color=&quot;#000000&quot; style=&quot;font: 10.0px &#39;Helvetica Neue&#39;; font-variant-ligatures: common-ligatures; color: #000000&quot;&gt;TBD (likely CSV or JSON)&lt;/font&gt;&lt;/p&gt;&#xa;&lt;/td&gt;&#xa;&lt;td valign=&quot;top&quot; style=&quot;width: 211.0px; height: 11.0px; border-style: solid; border-width: 1.0px 1.0px 1.0px 1.0px; border-color: #000000 #000000 #000000 #000000; padding: 4.0px 4.0px 4.0px 4.0px&quot;&gt;&#xa;&lt;p style=&quot;margin: 0.0px 0.0px 0.0px 0.0px&quot;&gt;&lt;font face=&quot;Helvetica Neue&quot; size=&quot;2&quot; color=&quot;#000000&quot; style=&quot;font: 10.0px &#39;Helvetica Neue&#39;; font-variant-ligatures: common-ligatures; color: #000000&quot;&gt;Wait for schema to finalize; keep flexible export&lt;/font&gt;&lt;/p&gt;&#xa;&lt;/td&gt;&#xa;&lt;/tr&gt;&#xa;&lt;tr&gt;&#xa;&lt;td valign=&quot;top&quot; style=&quot;width: 180.0px; height: 11.0px; background-color: #d4d4d4; border-style: solid; border-width: 1.0px 1.0px 1.0px 1.0px; border-color: #000000 #000000 #000000 #000000; padding: 4.0px 4.0px 4.0px 4.0px&quot;&gt;&#xa;&lt;p style=&quot;margin: 0.0px 0.0px 0.0px 0.0px&quot;&gt;&lt;font face=&quot;Helvetica Neue&quot; size=&quot;2&quot; color=&quot;#000000&quot; style=&quot;font: 10.0px &#39;Helvetica Neue&#39;; font-variant-ligatures: common-ligatures; color: #000000&quot;&gt;&lt;b&gt;Open FDA&lt;/b&gt;&lt;b&gt;&lt;/b&gt;&lt;/font&gt;&lt;/p&gt;&#xa;&lt;/td&gt;&#xa;&lt;td valign=&quot;top&quot; style=&quot;width: 124.0px; height: 11.0px; border-style: solid; border-width: 1.0px 1.0px 1.0px 1.0px; border-color: #000000 #000000 #000000 #000000; padding: 4.0px 4.0px 4.0px 4.0px&quot;&gt;&#xa;&lt;p style=&quot;margin: 0.0px 0.0px 0.0px 0.0px&quot;&gt;&lt;font face=&quot;Helvetica Neue&quot; size=&quot;2&quot; color=&quot;#000000&quot; style=&quot;font: 10.0px &#39;Helvetica Neue&#39;; font-variant-ligatures: common-ligatures; color: #000000&quot;&gt;JSON (OpenFDA schema)&lt;/font&gt;&lt;/p&gt;&#xa;&lt;/td&gt;&#xa;&lt;td valign=&quot;top&quot; style=&quot;width: 211.0px; height: 11.0px; border-style: solid; border-width: 1.0px 1.0px 1.0px 1.0px; border-color: #000000 #000000 #000000 #000000; padding: 4.0px 4.0px 4.0px 4.0px&quot;&gt;&#xa;&lt;p style=&quot;margin: 0.0px 0.0px 0.0px 0.0px&quot;&gt;&lt;font face=&quot;Helvetica Neue&quot; size=&quot;2&quot; color=&quot;#000000&quot; style=&quot;font: 10.0px &#39;Helvetica Neue&#39;; font-variant-ligatures: common-ligatures; color: #000000&quot;&gt;Map current JSON to OpenFDA schema&lt;/font&gt;&lt;/p&gt;&#xa;&lt;/td&gt;&#xa;&lt;/tr&gt;&#xa;&lt;tr&gt;&#xa;&lt;td valign=&quot;top&quot; style=&quot;width: 180.0px; height: 11.0px; background-color: #d4d4d4; border-style: solid; border-width: 1.0px 1.0px 1.0px 1.0px; border-color: #000000 #000000 #000000 #000000; padding: 4.0px 4.0px 4.0px 4.0px&quot;&gt;&#xa;&lt;p style=&quot;margin: 0.0px 0.0px 0.0px 0.0px&quot;&gt;&lt;font face=&quot;Helvetica Neue&quot; size=&quot;2&quot; color=&quot;#000000&quot; style=&quot;font: 10.0px &#39;Helvetica Neue&#39;; font-variant-ligatures: common-ligatures; color: #000000&quot;&gt;&lt;b&gt;HFCS Public (AE Only)&lt;/b&gt;&lt;b&gt;&lt;/b&gt;&lt;/font&gt;&lt;/p&gt;&#xa;&lt;/td&gt;&#xa;&lt;td valign=&quot;top&quot; style=&quot;width: 124.0px; height: 11.0px; border-style: solid; border-width: 1.0px 1.0px 1.0px 1.0px; border-color: #000000 #000000 #000000 #000000; padding: 4.0px 4.0px 4.0px 4.0px&quot;&gt;&#xa;&lt;p style=&quot;margin: 0.0px 0.0px 0.0px 0.0px&quot;&gt;&lt;font face=&quot;Helvetica Neue&quot; size=&quot;2&quot; color=&quot;#000000&quot; style=&quot;font: 10.0px &#39;Helvetica Neue&#39;; font-variant-ligatures: common-ligatures; color: #000000&quot;&gt;CSV (Public Extract)&lt;/font&gt;&lt;/p&gt;&#xa;&lt;/td&gt;&#xa;&lt;td valign=&quot;top&quot; style=&quot;width: 211.0px; height: 11.0px; border-style: solid; border-width: 1.0px 1.0px 1.0px 1.0px; border-color: #000000 #000000 #000000 #000000; padding: 4.0px 4.0px 4.0px 4.0px&quot;&gt;&#xa;&lt;p style=&quot;margin: 0.0px 0.0px 0.0px 0.0px&quot;&gt;&lt;font face=&quot;Helvetica Neue&quot; size=&quot;2&quot; color=&quot;#000000&quot; style=&quot;font: 10.0px &#39;Helvetica Neue&#39;; font-variant-ligatures: common-ligatures; color: #000000&quot;&gt;Extract subset fields for public release CSV&lt;/font&gt;&lt;/p&gt;&#xa;&lt;/td&gt;&#xa;&lt;/tr&gt;&#xa;&lt;tr&gt;&#xa;&lt;td valign=&quot;top&quot; style=&quot;width: 180.0px; height: 11.0px; background-color: #d4d4d4; border-style: solid; border-width: 1.0px 1.0px 1.0px 1.0px; border-color: #000000 #000000 #000000 #000000; padding: 4.0px 4.0px 4.0px 4.0px&quot;&gt;&#xa;&lt;p style=&quot;margin: 0.0px 0.0px 0.0px 0.0px&quot;&gt;&lt;font face=&quot;Helvetica Neue&quot; size=&quot;2&quot; color=&quot;#000000&quot; style=&quot;font: 10.0px &#39;Helvetica Neue&#39;; font-variant-ligatures: common-ligatures; color: #000000&quot;&gt;&lt;b&gt;PRIMO&lt;/b&gt;&lt;b&gt;&lt;/b&gt;&lt;/font&gt;&lt;/p&gt;&#xa;&lt;/td&gt;&#xa;&lt;td valign=&quot;top&quot; style=&quot;width: 124.0px; height: 11.0px; border-style: solid; border-width: 1.0px 1.0px 1.0px 1.0px; border-color: #000000 #000000 #000000 #000000; padding: 4.0px 4.0px 4.0px 4.0px&quot;&gt;&#xa;&lt;p style=&quot;margin: 0.0px 0.0px 0.0px 0.0px&quot;&gt;&lt;font face=&quot;Helvetica Neue&quot; size=&quot;2&quot; color=&quot;#000000&quot; style=&quot;font: 10.0px &#39;Helvetica Neue&#39;; font-variant-ligatures: common-ligatures; color: #000000&quot;&gt;CSV, JSON (Internal format)&lt;/font&gt;&lt;/p&gt;&#xa;&lt;/td&gt;&#xa;&lt;td valign=&quot;top&quot; style=&quot;width: 211.0px; height: 11.0px; border-style: solid; border-width: 1.0px 1.0px 1.0px 1.0px; border-color: #000000 #000000 #000000 #000000; padding: 4.0px 4.0px 4.0px 4.0px&quot;&gt;&#xa;&lt;p style=&quot;margin: 0.0px 0.0px 0.0px 0.0px&quot;&gt;&lt;font face=&quot;Helvetica Neue&quot; size=&quot;2&quot; color=&quot;#000000&quot; style=&quot;font: 10.0px &#39;Helvetica Neue&#39;; font-variant-ligatures: common-ligatures; color: #000000&quot;&gt;Simulate intake &amp;amp; rules for quality check&lt;/font&gt;&lt;/p&gt;&#xa;&lt;/td&gt;&#xa;&lt;/tr&gt;&#xa;&lt;/tbody&gt;&#xa;&lt;/table&gt;" style="text;whiteSpace=wrap;html=1;" vertex="1" parent="WIyWlLk6GJQsqaUBKTNV-1">
          <mxGeometry x="180" y="-1140" width="560" height="1230" as="geometry" />
        </mxCell>
        <mxCell id="Y-bC4dFZqXMmufeN_1P_-54" value="1. &lt;b&gt;Format Clarity:&lt;/b&gt; in the first step I need to know what format those 7 endpoints are looking for&lt;br&gt;2. &lt;b&gt;Schema Definition&lt;/b&gt;: &lt;font color=&quot;#ff0000&quot;&gt;Need sample data input they are currently ingesting&lt;/font&gt;&lt;div&gt;&lt;ul&gt;&lt;li&gt;&lt;span style=&quot;background-color: initial;&quot; class=&quot;s1&quot;&gt;See &lt;/span&gt;&lt;b style=&quot;background-color: initial;&quot;&gt;required column names&lt;/b&gt;&lt;/li&gt;&lt;li&gt;&lt;b style=&quot;background-color: initial;&quot;&gt;&lt;span style=&quot;background-color: initial; font-weight: normal;&quot;&gt;Understand &lt;/span&gt;&lt;span style=&quot;background-color: initial; font-weight: normal;&quot; class=&quot;s1&quot;&gt;&lt;b&gt;expected values&lt;/b&gt;&lt;/span&gt;&lt;span style=&quot;background-color: initial; font-weight: normal;&quot;&gt; (e.g. &lt;/span&gt;&lt;span style=&quot;background-color: initial; font-weight: normal;&quot; class=&quot;s2&quot;&gt;outcome = &quot;Hospitalization&quot;&lt;/span&gt;&lt;span style=&quot;background-color: initial; font-weight: normal;&quot;&gt; vs MedDRA code.&lt;/span&gt;&lt;/b&gt;&lt;/li&gt;&lt;li&gt;&lt;span style=&quot;background-color: initial;&quot;&gt;Spot &lt;/span&gt;&lt;span style=&quot;background-color: initial;&quot; class=&quot;s1&quot;&gt;&lt;b&gt;metadata fields&lt;/b&gt;&lt;/span&gt;&lt;span style=&quot;background-color: initial;&quot;&gt; (like timestamps, case ID, status, etc.)&lt;/span&gt;&lt;/li&gt;&lt;/ul&gt;&lt;/div&gt;&lt;p&gt;&lt;/p&gt;" style="text;whiteSpace=wrap;html=1;" vertex="1" parent="WIyWlLk6GJQsqaUBKTNV-1">
          <mxGeometry x="-360" y="-350" width="420" height="150" as="geometry" />
        </mxCell>
      </root>
    </mxGraphModel>
  </diagram>
</mxfile>
